<svg width="93" height="100" viewBox="0 0 93 100" fill="none" xmlns="http://www.w3.org/2000/svg">
<mask id="mask0_3_52" style="mask-type:luminance" maskUnits="userSpaceOnUse" x="0" y="0" width="93" height="100">
<path d="M92.5924 46.3415C92.5924 20.75 71.8627 0 46.2962 0C20.7297 0 0 20.75 0 46.3415C0 60.4146 6.27435 73.0122 16.1671 81.5061L10.6116 91.1341V98.7805C10.6116 99.4512 11.1598 100 11.8299 100C12.0553 100 12.2624 99.939 12.4451 99.8354L19.0545 96.0183L24.2141 87.0793C30.7748 90.6524 38.2979 92.6829 46.2962 92.6829C54.2945 92.6829 61.8176 90.6524 68.3844 87.0793L73.5439 96.0183L80.1533 99.8354C80.3361 99.939 80.5432 100 80.7686 100C81.4387 100 81.9869 99.4512 81.9869 98.7805V91.1341L76.4314 81.5061C86.318 73.0122 92.5924 60.4146 92.5924 46.3415V46.3415Z" fill="white"/>
</mask>
<g mask="url(#mask0_3_52)">
<path d="M46.2962 92.6829C71.8649 92.6829 92.5924 71.9351 92.5924 46.3415C92.5924 20.7478 71.8649 0 46.2962 0C20.7275 0 0 20.7478 0 46.3415C0 71.9351 20.7275 92.6829 46.2962 92.6829Z" fill="#45EF8A"/>
</g>
<mask id="mask1_3_52" style="mask-type:luminance" maskUnits="userSpaceOnUse" x="0" y="0" width="93" height="100">
<path d="M92.5924 46.3415C92.5924 20.75 71.8627 0 46.2962 0C20.7297 0 0 20.75 0 46.3415C0 60.4146 6.27435 73.0122 16.1671 81.5061L10.6116 91.1341V98.7805C10.6116 99.4512 11.1598 100 11.8299 100C12.0553 100 12.2624 99.939 12.4451 99.8354L19.0545 96.0183L24.2141 87.0793C30.7748 90.6524 38.2979 92.6829 46.2962 92.6829C54.2945 92.6829 61.8176 90.6524 68.3844 87.0793L73.5439 96.0183L80.1533 99.8354C80.3361 99.939 80.5432 100 80.7686 100C81.4387 100 81.9869 99.4512 81.9869 98.7805V91.1341L76.4314 81.5061C86.318 73.0122 92.5924 60.4146 92.5924 46.3415V46.3415Z" fill="white"/>
</mask>
<g mask="url(#mask1_3_52)">
<path d="M46.2962 92.0733C71.6616 92.0733 92.2513 71.6525 92.5741 46.3416H92.5924C92.5924 71.933 71.8627 92.683 46.2962 92.683C20.7297 92.683 0 71.933 0 46.3416H0.0182748C0.34113 71.6525 20.9308 92.0733 46.2962 92.0733Z" fill="#263238" fill-opacity="0.2"/>
</g>
<mask id="mask2_3_52" style="mask-type:luminance" maskUnits="userSpaceOnUse" x="0" y="0" width="93" height="100">
<path d="M92.5924 46.3415C92.5924 20.75 71.8627 0 46.2962 0C20.7297 0 0 20.75 0 46.3415C0 60.4146 6.27435 73.0122 16.1671 81.5061L10.6116 91.1341V98.7805C10.6116 99.4512 11.1598 100 11.8299 100C12.0553 100 12.2624 99.939 12.4451 99.8354L19.0545 96.0183L24.2141 87.0793C30.7748 90.6524 38.2979 92.6829 46.2962 92.6829C54.2945 92.6829 61.8176 90.6524 68.3844 87.0793L73.5439 96.0183L80.1533 99.8354C80.3361 99.939 80.5432 100 80.7686 100C81.4387 100 81.9869 99.4512 81.9869 98.7805V91.1341L76.4314 81.5061C86.318 73.0122 92.5924 60.4146 92.5924 46.3415V46.3415Z" fill="white"/>
</mask>
<g mask="url(#mask2_3_52)">
<path d="M46.2962 0C20.7297 0 0 20.75 0 46.3415H92.5924C92.5924 20.75 71.8627 0 46.2962 0Z" fill="#3DDC84"/>
</g>
<mask id="mask3_3_52" style="mask-type:luminance" maskUnits="userSpaceOnUse" x="0" y="0" width="93" height="100">
<path d="M92.5924 46.3415C92.5924 20.75 71.8627 0 46.2962 0C20.7297 0 0 20.75 0 46.3415C0 60.4146 6.27435 73.0122 16.1671 81.5061L10.6116 91.1341V98.7805C10.6116 99.4512 11.1598 100 11.8299 100C12.0553 100 12.2624 99.939 12.4451 99.8354L19.0545 96.0183L24.2141 87.0793C30.7748 90.6524 38.2979 92.6829 46.2962 92.6829C54.2945 92.6829 61.8176 90.6524 68.3844 87.0793L73.5439 96.0183L80.1533 99.8354C80.3361 99.939 80.5432 100 80.7686 100C81.4387 100 81.9869 99.4512 81.9869 98.7805V91.1341L76.4314 81.5061C86.318 73.0122 92.5924 60.4146 92.5924 46.3415V46.3415Z" fill="white"/>
</mask>
<g mask="url(#mask3_3_52)">
<path d="M46.2962 45.1219C49.6605 45.1219 52.3878 42.3919 52.3878 39.0243C52.3878 35.6567 49.6605 32.9268 46.2962 32.9268C42.9319 32.9268 40.2046 35.6567 40.2046 39.0243C40.2046 42.3919 42.9319 45.1219 46.2962 45.1219Z" fill="#3DDC84"/>
</g>
<mask id="mask4_3_52" style="mask-type:luminance" maskUnits="userSpaceOnUse" x="0" y="0" width="93" height="100">
<path d="M92.5924 46.3415C92.5924 20.75 71.8627 0 46.2962 0C20.7297 0 0 20.75 0 46.3415C0 60.4146 6.27435 73.0122 16.1671 81.5061L10.6116 91.1341V98.7805C10.6116 99.4512 11.1598 100 11.8299 100C12.0553 100 12.2624 99.939 12.4451 99.8354L19.0545 96.0183L24.2141 87.0793C30.7748 90.6524 38.2979 92.6829 46.2962 92.6829C54.2945 92.6829 61.8176 90.6524 68.3844 87.0793L73.5439 96.0183L80.1533 99.8354C80.3361 99.939 80.5432 100 80.7686 100C81.4387 100 81.9869 99.4512 81.9869 98.7805V91.1341L76.4314 81.5061C86.318 73.0122 92.5924 60.4146 92.5924 46.3415V46.3415Z" fill="white"/>
</mask>
<g mask="url(#mask4_3_52)">
<path d="M92.5924 46.3414H0V45.7317H92.5924V46.3414Z" fill="#263238" fill-opacity="0.05"/>
</g>
<mask id="mask5_3_52" style="mask-type:luminance" maskUnits="userSpaceOnUse" x="0" y="0" width="93" height="100">
<path d="M92.5924 46.3415C92.5924 20.75 71.8627 0 46.2962 0C20.7297 0 0 20.75 0 46.3415C0 60.4146 6.27435 73.0122 16.1671 81.5061L10.6116 91.1341V98.7805C10.6116 99.4512 11.1598 100 11.8299 100C12.0553 100 12.2624 99.939 12.4451 99.8354L19.0545 96.0183L24.2141 87.0793C30.7748 90.6524 38.2979 92.6829 46.2962 92.6829C54.2945 92.6829 61.8176 90.6524 68.3844 87.0793L73.5439 96.0183L80.1533 99.8354C80.3361 99.939 80.5432 100 80.7686 100C81.4387 100 81.9869 99.4512 81.9869 98.7805V91.1341L76.4314 81.5061C86.318 73.0122 92.5924 60.4146 92.5924 46.3415V46.3415Z" fill="white"/>
</mask>
<g mask="url(#mask5_3_52)">
<path d="M92.5924 46.9513H0V46.3416H92.5924V46.9513Z" fill="white" fill-opacity="0.05"/>
</g>
<mask id="mask6_3_52" style="mask-type:luminance" maskUnits="userSpaceOnUse" x="0" y="0" width="93" height="100">
<path d="M92.5924 46.3415C92.5924 20.75 71.8627 0 46.2962 0C20.7297 0 0 20.75 0 46.3415C0 60.4146 6.27435 73.0122 16.1671 81.5061L10.6116 91.1341V98.7805C10.6116 99.4512 11.1598 100 11.8299 100C12.0553 100 12.2624 99.939 12.4451 99.8354L19.0545 96.0183L24.2141 87.0793C30.7748 90.6524 38.2979 92.6829 46.2962 92.6829C54.2945 92.6829 61.8176 90.6524 68.3844 87.0793L73.5439 96.0183L80.1533 99.8354C80.3361 99.939 80.5432 100 80.7686 100C81.4387 100 81.9869 99.4512 81.9869 98.7805V91.1341L76.4314 81.5061C86.318 73.0122 92.5924 60.4146 92.5924 46.3415V46.3415Z" fill="white"/>
</mask>
<g mask="url(#mask6_3_52)">
<path d="M36.4461 46.3415L11.8299 100H92.5924V58.5367L51.1695 17.0732L41.4229 24.3903L36.4461 46.3415Z" fill="url(#paint0_linear_3_52)"/>
</g>
<mask id="mask7_3_52" style="mask-type:luminance" maskUnits="userSpaceOnUse" x="0" y="0" width="93" height="100">
<path d="M92.5924 46.3415C92.5924 20.75 71.8627 0 46.2962 0C20.7297 0 0 20.75 0 46.3415C0 60.4146 6.27435 73.0122 16.1671 81.5061L10.6116 91.1341V98.7805C10.6116 99.4512 11.1598 100 11.8299 100C12.0553 100 12.2624 99.939 12.4451 99.8354L19.0545 96.0183L24.2141 87.0793C30.7748 90.6524 38.2979 92.6829 46.2962 92.6829C54.2945 92.6829 61.8176 90.6524 68.3844 87.0793L73.5439 96.0183L80.1533 99.8354C80.3361 99.939 80.5432 100 80.7686 100C81.4387 100 81.9869 99.4512 81.9869 98.7805V91.1341L76.4314 81.5061C86.318 73.0122 92.5924 60.4146 92.5924 46.3415V46.3415Z" fill="white"/>
</mask>
<g mask="url(#mask7_3_52)">
<path d="M46.2962 0.609756C71.6616 0.609756 92.2513 21.0305 92.5741 46.3415H92.5924C92.5924 20.75 71.8627 0 46.2962 0C20.7297 0 0 20.75 0 46.3415H0.0182748C0.34113 21.0305 20.9308 0.609756 46.2962 0.609756Z" fill="white" fill-opacity="0.2"/>
</g>
<mask id="mask8_3_52" style="mask-type:luminance" maskUnits="userSpaceOnUse" x="0" y="0" width="93" height="100">
<path d="M92.5924 46.3415C92.5924 20.75 71.8627 0 46.2962 0C20.7297 0 0 20.75 0 46.3415C0 60.4146 6.27435 73.0122 16.1671 81.5061L10.6116 91.1341V98.7805C10.6116 99.4512 11.1598 100 11.8299 100C12.0553 100 12.2624 99.939 12.4451 99.8354L19.0545 96.0183L24.2141 87.0793C30.7748 90.6524 38.2979 92.6829 46.2962 92.6829C54.2945 92.6829 61.8176 90.6524 68.3844 87.0793L73.5439 96.0183L80.1533 99.8354C80.3361 99.939 80.5432 100 80.7686 100C81.4387 100 81.9869 99.4512 81.9869 98.7805V91.1341L76.4314 81.5061C86.318 73.0122 92.5924 60.4146 92.5924 46.3415V46.3415Z" fill="white"/>
</mask>
<g mask="url(#mask8_3_52)">
<path d="M56.1463 46.3416H44.889L73.5439 96.0184L80.1533 99.8355C80.3361 99.9391 80.5432 100 80.7686 100C81.4387 100 81.9869 99.4513 81.9869 98.7806V91.1342L56.1463 46.3416Z" fill="#D7EFFE"/>
<path opacity="0.3" d="M56.1463 46.3416H44.889L73.5439 96.0184L80.1533 99.8355C80.3361 99.9391 80.5432 100 80.7686 100C81.4387 100 81.9869 99.4513 81.9869 98.7806V91.1342L56.1463 46.3416Z" fill="#BDBDBD"/>
<path d="M81.9808 91.1342L56.1463 46.3416H55.793L81.9808 91.744V91.1342Z" fill="white" fill-opacity="0.2"/>
<path d="M80.7625 99.3903C80.5371 99.3903 80.33 99.3294 80.1472 99.2257L73.5379 95.4086L45.2424 46.3416H44.889L73.5439 96.0184L80.1533 99.8355C80.3361 99.9391 80.5432 100 80.7686 100C81.4387 100 81.9869 99.4513 81.9869 98.7806V98.1708C81.9808 98.8416 81.4326 99.3903 80.7625 99.3903Z" fill="#212121" fill-opacity="0.1"/>
</g>
<mask id="mask9_3_52" style="mask-type:luminance" maskUnits="userSpaceOnUse" x="0" y="0" width="93" height="100">
<path d="M92.5924 46.3415C92.5924 20.75 71.8627 0 46.2962 0C20.7297 0 0 20.75 0 46.3415C0 60.4146 6.27435 73.0122 16.1671 81.5061L10.6116 91.1341V98.7805C10.6116 99.4512 11.1598 100 11.8299 100C12.0553 100 12.2624 99.939 12.4451 99.8354L19.0545 96.0183L24.2141 87.0793C30.7748 90.6524 38.2979 92.6829 46.2962 92.6829C54.2945 92.6829 61.8176 90.6524 68.3844 87.0793L73.5439 96.0183L80.1533 99.8354C80.3361 99.939 80.5432 100 80.7686 100C81.4387 100 81.9869 99.4512 81.9869 98.7805V91.1341L76.4314 81.5061C86.318 73.0122 92.5924 60.4146 92.5924 46.3415V46.3415Z" fill="white"/>
</mask>
<g mask="url(#mask9_3_52)">
<path d="M70.6626 46.3416C70.6626 59.8111 59.7526 70.7318 46.2962 70.7318C42.294 70.7318 38.5172 69.7623 35.1851 68.0489L46.2962 48.7806L47.7034 46.3416H36.4461L10.6055 91.1342V98.7806C10.6055 99.4513 11.1537 100 11.8238 100C12.0492 100 12.2563 99.9391 12.4391 99.8355L19.0484 96.0184L30.3057 76.5062C35.0755 79.0428 40.5153 80.4879 46.2962 80.4879C65.1375 80.4879 80.4092 65.2013 80.4092 46.3416H70.6626Z" fill="#D7EFFE"/>
<path d="M36.4461 46.3416L10.6055 91.1342V91.744L36.7994 46.3416H36.4461ZM46.2962 70.7318C42.294 70.7318 38.5172 69.7623 35.1851 68.0489V68.6586C38.5172 70.372 42.294 71.3416 46.2962 71.3416C59.7526 71.3416 70.6626 60.4208 70.6626 46.9513H80.3909C80.397 46.7501 80.4092 46.5489 80.4092 46.3416H70.6626C70.6626 59.8111 59.7526 70.7318 46.2962 70.7318Z" fill="white" fill-opacity="0.4"/>
<path d="M47.7034 46.3416H47.35L35.179 67.4391V68.0489L47.7034 46.3416ZM80.3909 46.3416C80.062 64.9147 64.9304 79.8781 46.2962 79.8781C40.5153 79.8781 35.0755 78.433 30.3057 75.8964L19.0484 95.4086L12.4391 99.2257C12.2563 99.3294 12.0492 99.3903 11.8238 99.3903C11.1537 99.3903 10.6055 98.8416 10.6055 98.1708V98.7806C10.6055 99.4513 11.1537 100 11.8238 100C12.0492 100 12.2563 99.9391 12.4391 99.8355L19.0484 96.0184L30.3057 76.5062C35.0755 79.0428 40.5153 80.4879 46.2962 80.4879C65.1375 80.4879 80.4092 65.2013 80.4092 46.3416H80.3909Z" fill="#212121" fill-opacity="0.1"/>
</g>
<mask id="mask10_3_52" style="mask-type:luminance" maskUnits="userSpaceOnUse" x="0" y="0" width="93" height="100">
<path d="M92.5924 46.3415C92.5924 20.75 71.8627 0 46.2962 0C20.7297 0 0 20.75 0 46.3415C0 60.4146 6.27435 73.0122 16.1671 81.5061L10.6116 91.1341V98.7805C10.6116 99.4512 11.1598 100 11.8299 100C12.0553 100 12.2624 99.939 12.4451 99.8354L19.0545 96.0183L24.2141 87.0793C30.7748 90.6524 38.2979 92.6829 46.2962 92.6829C54.2945 92.6829 61.8176 90.6524 68.3844 87.0793L73.5439 96.0183L80.1533 99.8354C80.3361 99.939 80.5432 100 80.7686 100C81.4387 100 81.9869 99.4512 81.9869 98.7805V91.1341L76.4314 81.5061C86.318 73.0122 92.5924 60.4146 92.5924 46.3415V46.3415Z" fill="white"/>
</mask>
<g mask="url(#mask10_3_52)">
<path d="M57.2611 24.3903H51.1695V17.0732H41.4229V24.3903H35.3313C33.3211 24.3903 31.6763 26.0367 31.6763 28.0489V46.3415L43.7134 58.3781C44.3773 59.0367 45.285 59.4513 46.2962 59.4513C47.3074 59.4513 48.2211 59.0428 48.879 58.3781L60.916 46.3415V28.0489C60.916 26.0367 59.2713 24.3903 57.2611 24.3903ZM46.2962 45.122C42.9336 45.122 40.2046 42.3903 40.2046 39.0245C40.2046 35.6586 42.9336 32.9269 46.2962 32.9269C49.6588 32.9269 52.3878 35.6586 52.3878 39.0245C52.3878 42.3903 49.6588 45.122 46.2962 45.122Z" fill="#073042"/>
</g>
<mask id="mask11_3_52" style="mask-type:luminance" maskUnits="userSpaceOnUse" x="0" y="0" width="93" height="100">
<path d="M92.5924 46.3415C92.5924 20.75 71.8627 0 46.2962 0C20.7297 0 0 20.75 0 46.3415C0 60.4146 6.27435 73.0122 16.1671 81.5061L10.6116 91.1341V98.7805C10.6116 99.4512 11.1598 100 11.8299 100C12.0553 100 12.2624 99.939 12.4451 99.8354L19.0545 96.0183L24.2141 87.0793C30.7748 90.6524 38.2979 92.6829 46.2962 92.6829C54.2945 92.6829 61.8176 90.6524 68.3844 87.0793L73.5439 96.0183L80.1533 99.8354C80.3361 99.939 80.5432 100 80.7686 100C81.4387 100 81.9869 99.4512 81.9869 98.7805V91.1341L76.4314 81.5061C86.318 73.0122 92.5924 60.4146 92.5924 46.3415V46.3415Z" fill="white"/>
</mask>
<g mask="url(#mask11_3_52)">
<path d="M57.2611 24.3903H51.1695V25.0001H57.2611C59.2713 25.0001 60.916 26.6464 60.916 28.6586V28.0489C60.916 26.0367 59.2713 24.3903 57.2611 24.3903ZM51.1695 17.0732H41.4229V17.683H51.1695V17.0732ZM41.4229 24.3903H35.3313C33.3211 24.3903 31.6763 26.0367 31.6763 28.0489V28.6586C31.6763 26.6464 33.3211 25.0001 35.3313 25.0001H41.4229V24.3903ZM46.2962 45.122C42.9336 45.122 40.2046 42.3903 40.2046 39.0245V39.6342C40.2046 43.0001 42.9336 45.7318 46.2962 45.7318C49.6588 45.7318 52.3878 43.0001 52.3878 39.6342V39.0245C52.3878 42.3903 49.6588 45.122 46.2962 45.122Z" fill="white" fill-opacity="0.1"/>
</g>
<mask id="mask12_3_52" style="mask-type:luminance" maskUnits="userSpaceOnUse" x="0" y="0" width="93" height="100">
<path d="M92.5924 46.3415C92.5924 20.75 71.8627 0 46.2962 0C20.7297 0 0 20.75 0 46.3415C0 60.4146 6.27435 73.0122 16.1671 81.5061L10.6116 91.1341V98.7805C10.6116 99.4512 11.1598 100 11.8299 100C12.0553 100 12.2624 99.939 12.4451 99.8354L19.0545 96.0183L24.2141 87.0793C30.7748 90.6524 38.2979 92.6829 46.2962 92.6829C54.2945 92.6829 61.8176 90.6524 68.3844 87.0793L73.5439 96.0183L80.1533 99.8354C80.3361 99.939 80.5432 100 80.7686 100C81.4387 100 81.9869 99.4512 81.9869 98.7805V91.1341L76.4314 81.5061C86.318 73.0122 92.5924 60.4146 92.5924 46.3415V46.3415Z" fill="white"/>
</mask>
<g mask="url(#mask12_3_52)">
<path d="M46.2962 32.9268C49.6588 32.9268 52.3878 35.6585 52.3878 39.0243V38.4146C52.3878 35.0487 49.6588 32.317 46.2962 32.317C42.9336 32.317 40.2046 35.0487 40.2046 38.4146V39.0243C40.2046 35.6585 42.9336 32.9268 46.2962 32.9268ZM48.879 57.7682C48.2151 58.4268 47.3074 58.8414 46.2962 58.8414C45.285 58.8414 44.3712 58.4329 43.7134 57.7682L31.6763 45.7317V46.3414L43.7134 58.378C44.3773 59.0365 45.285 59.4512 46.2962 59.4512C47.3074 59.4512 48.2211 59.0426 48.879 58.378L60.916 46.3414V45.7317L48.879 57.7682Z" fill="#212121" fill-opacity="0.1"/>
</g>
<path d="M92.5924 46.3415C92.5924 20.75 71.8627 0 46.2962 0C20.7297 0 0 20.75 0 46.3415C0 60.4146 6.27435 73.0122 16.1671 81.5061L10.6116 91.1341V98.7805C10.6116 99.4512 11.1598 100 11.8299 100C12.0553 100 12.2624 99.939 12.4452 99.8354L19.0545 96.0183L24.2141 87.0793C30.7748 90.6524 38.2979 92.6829 46.2962 92.6829C54.2945 92.6829 61.8176 90.6524 68.3843 87.0793L73.5439 96.0183L80.1533 99.8354C80.3361 99.939 80.5432 100 80.7686 100C81.4387 100 81.9869 99.4512 81.9869 98.7805V91.1341L76.4314 81.5061C86.318 73.0122 92.5924 60.4146 92.5924 46.3415Z" fill="url(#paint1_radial_3_52)"/>
<defs>
<linearGradient id="paint0_linear_3_52" x1="35.5502" y1="60.319" x2="79.2734" y2="84.7756" gradientUnits="userSpaceOnUse">
<stop stop-color="#263238" stop-opacity="0.2"/>
<stop offset="1" stop-color="#263238" stop-opacity="0.02"/>
</linearGradient>
<radialGradient id="paint1_radial_3_52" cx="0" cy="0" r="1" gradientUnits="userSpaceOnUse" gradientTransform="translate(13.6196 13.5311) scale(109.724 118.503)">
<stop stop-color="white" stop-opacity="0.1"/>
<stop offset="1" stop-color="white" stop-opacity="0"/>
</radialGradient>
</defs>
</svg>
