<svg width="89" height="100" viewBox="0 0 89 100" fill="none" xmlns="http://www.w3.org/2000/svg">
<path d="M88.175 0L80.142 89.9895L44.0335 100L8.02446 90.0037L0 0H88.175Z" fill="#264DE4"/>
<path d="M44.0875 92.3484L73.2649 84.2593L80.1296 7.35913H44.0875V92.3484Z" fill="#2965F1"/>
<path d="M44.0875 40.7401H18.3959L19.3853 51.7786H44.0875V40.7401Z" fill="#EBEBEB"/>
<path d="M44.0875 18.3978H44.0493H16.408L17.4114 29.4365H44.0875V18.3978Z" fill="#EBEBEB"/>
<path d="M19.8785 57.2983L21.425 74.6305L44.0367 80.9077L44.0875 80.8935V69.4088L44.0391 69.4217L31.7454 66.1021L30.9595 57.2983H24.9857H19.8785Z" fill="#EBEBEB"/>
<path d="M57.6421 51.7786L56.3608 66.0948L44.0493 69.4178V80.9021L66.679 74.6303L66.8451 72.7653L69.439 43.7044L69.7084 40.7402L71.7012 18.3978H44.0493V29.4365H59.6038L58.5994 40.7402H44.0493V51.7786H57.6421Z" fill="white"/>
</svg>
