<svg width="100" height="100" viewBox="0 0 100 100" fill="none" xmlns="http://www.w3.org/2000/svg">
<path d="M65.2328 35.6504L83.9694 13.321L80.1107 10.0832L61.3742 32.4126L65.2328 35.6504Z" fill="#0019FF"/>
<path d="M65.4809 35.9185L84.6043 13.9195L80.8028 10.6149L61.6794 32.6138L65.4809 35.9185Z" fill="#0015FF"/>
<path d="M65.7243 36.1909L85.2288 14.529L81.4855 11.1585L61.981 32.8204L65.7243 36.1909Z" fill="#0011FF"/>
<path d="M65.9629 36.4672L85.8424 15.1491L82.1585 11.7138L62.279 33.0319L65.9629 36.4672Z" fill="#000CFF"/>
<path d="M66.1967 36.748L86.4452 15.78L82.8218 12.281L62.5733 33.2489L66.1967 36.748Z" fill="#0008FF"/>
<path d="M66.4255 37.0327L87.0369 16.4213L83.4751 12.8595L62.8637 33.4709L66.4255 37.0327Z" fill="#0004FF"/>
<path d="M66.6493 37.3213L87.6172 17.0728L84.1182 13.4494L63.1502 33.698L66.6493 37.3213Z" fill="#0000FF"/>
<path d="M66.868 37.6137L88.1862 17.7342L84.7509 14.0503L63.4327 33.9298L66.868 37.6137Z" fill="#0500FF"/>
<path d="M67.0816 37.9101L88.7435 18.4057L85.373 14.6624L63.7112 34.1668L67.0816 37.9101Z" fill="#0900FF"/>
<path d="M67.29 38.2101L89.289 19.0867L85.9844 15.2851L63.9854 34.4085L67.29 38.2101Z" fill="#0D00FF"/>
<path d="M67.4931 38.5135L89.8225 19.777L86.5847 15.9183L64.2554 34.6549L67.4931 38.5135Z" fill="#1100FF"/>
<path d="M67.691 38.8206L90.3439 20.4766L87.174 16.5621L64.521 34.9061L67.691 38.8206Z" fill="#1600FF"/>
<path d="M67.8834 39.131L90.853 21.1852L87.7519 17.2159L64.7822 35.1617L67.8834 39.131Z" fill="#1A00FF"/>
<path d="M68.0703 39.4448L91.3497 21.9025L88.3183 17.8797L65.0389 35.422L68.0703 39.4448Z" fill="#1E00FF"/>
<path d="M68.2518 39.7618L91.8337 22.6285L88.873 18.5534L65.291 35.6867L68.2518 39.7618Z" fill="#2200FF"/>
<path d="M68.4277 40.0819L92.3051 23.3628L89.4159 19.2366L65.5385 35.9557L68.4277 40.0819Z" fill="#2700FF"/>
<path d="M68.598 40.4051L92.7635 24.1052L89.9468 19.9293L65.7813 36.2291L68.598 40.4051Z" fill="#2B00FF"/>
<path d="M68.7626 40.7309L93.2089 24.8553L90.4655 20.6308L66.0192 36.5065L68.7626 40.7309Z" fill="#2F00FF"/>
<path d="M68.9215 41.06L93.6412 25.6134L90.9719 21.3417L66.2523 36.7882L68.9215 41.06Z" fill="#3300FF"/>
<path d="M69.0747 41.3915L94.0602 26.3788L91.4658 22.0611L66.4804 37.0739L69.0747 41.3915Z" fill="#3800FF"/>
<path d="M69.222 41.7258L94.4657 27.1513L91.9471 22.7891L66.7034 37.3635L69.222 41.7258Z" fill="#3C00FF"/>
<path d="M69.3635 42.0625L94.8577 27.9308L92.4156 23.5252L66.9214 37.6569L69.3635 42.0625Z" fill="#4000FF"/>
<path d="M69.499 42.4016L95.236 28.7171L92.8712 24.2696L67.1343 37.9541L69.499 42.4016Z" fill="#4400FF"/>
<path d="M69.6287 42.7432L95.6005 29.5099L93.3137 25.0218L67.3419 38.2551L69.6287 42.7432Z" fill="#4800FF"/>
<path d="M69.7523 43.0868L95.9512 30.3087L93.7431 25.7814L67.5442 38.5594L69.7523 43.0868Z" fill="#4D00FF"/>
<path d="M69.87 43.4324L96.2879 31.1136L94.1591 26.5484L67.7412 38.8672L69.87 43.4324Z" fill="#5100FF"/>
<path d="M69.9816 43.7804L96.6104 31.9245L94.5616 27.3229L67.9328 39.1788L69.9816 43.7804Z" fill="#5500FF"/>
<path d="M70.0871 44.1301L96.9188 32.7407L94.9506 28.104L68.1189 39.4934L70.0871 44.1301Z" fill="#5900FF"/>
<path d="M70.1865 44.4814L97.2129 33.562L95.3259 28.8917L68.2995 39.8111L70.1865 44.4814Z" fill="#5E00FF"/>
<path d="M70.2797 44.8346L97.4926 34.3886L95.6874 29.686L68.4746 40.1321L70.2797 44.8346Z" fill="#6200FF"/>
<path d="M70.3668 45.1893L97.7578 35.2198L96.035 30.4864L68.644 40.456L70.3668 45.1893Z" fill="#6600FF"/>
<path d="M70.4476 45.5455L98.0085 36.0556L96.3685 31.2929L68.8077 40.7828L70.4476 45.5455Z" fill="#6A00FF"/>
<path d="M70.5222 45.9031L98.2445 36.8956L96.6879 32.105L68.9657 41.1125L70.5222 45.9031Z" fill="#6F00FF"/>
<path d="M70.5906 46.2619L98.4659 37.7396L96.9931 32.9225L69.1179 41.4449L70.5906 46.2619Z" fill="#7300FF"/>
<path d="M70.6527 46.6217L98.6724 38.5872L97.284 33.7452L69.2643 41.7797L70.6527 46.6217Z" fill="#7700FF"/>
<path d="M70.7085 46.9827L98.8642 39.4384L97.5605 34.5729L69.4048 42.1172L70.7085 46.9827Z" fill="#7B00FF"/>
<path d="M70.758 47.3446L99.0411 40.2928L97.8225 35.4054L69.5395 42.4571L70.758 47.3446Z" fill="#8000FF"/>
<path d="M70.8012 47.7073L99.203 41.1502L98.0699 36.2422L69.6681 42.7993L70.8012 47.7073Z" fill="#8400FF"/>
<path d="M70.8381 48.0706L99.35 42.0102L98.3027 37.0832L69.7908 43.1436L70.8381 48.0706Z" fill="#8800FF"/>
<path d="M70.8685 48.4346L99.4819 42.8727L98.5208 37.9282L69.9074 43.49L70.8685 48.4346Z" fill="#8C00FF"/>
<path d="M70.8927 48.799L99.5988 43.7373L98.7241 38.7767L70.018 43.8384L70.8927 48.799Z" fill="#9100FF"/>
<path d="M70.9105 49.1638L99.7005 44.6039L98.9125 39.6288L70.1225 44.1887L70.9105 49.1638Z" fill="#9500FF"/>
<path d="M70.9219 49.529L99.7871 45.4723L99.0861 40.4842L70.2209 44.5409L70.9219 49.529Z" fill="#9900FF"/>
<path d="M70.9269 49.8942L99.8586 46.3419L99.2447 41.3423L70.313 44.8947L70.9269 49.8942Z" fill="#9D00FF"/>
<path d="M70.9256 50.2595L99.9148 47.2126L99.3883 42.2031L70.399 45.2499L70.9256 50.2595Z" fill="#A100FF"/>
<path d="M70.9179 50.6246L99.9558 48.0841L99.5168 43.0661L70.4788 45.6066L70.9179 50.6246Z" fill="#A600FF"/>
<path d="M70.9038 50.9895L99.9817 48.9562L99.6303 43.9313L70.5524 45.9647L70.9038 50.9895Z" fill="#AA00FF"/>
<path d="M70.8833 51.3542L99.9923 49.8286L99.7286 44.7984L70.6197 46.3239L70.8833 51.3542Z" fill="#AE00FF"/>
<path d="M70.8565 51.7184L99.9877 50.7011L99.8119 45.6671L70.6807 46.6844L70.8565 51.7184Z" fill="#B200FF"/>
<path d="M70.8233 52.0821L99.9678 51.5734L99.8799 46.5371L70.7354 47.0458L70.8233 52.0821Z" fill="#B700FF"/>
<path d="M70.7838 52.4453H99.9327V47.4082H70.7838V52.4453Z" fill="#BB00FF"/>
<path d="M70.738 52.8075L99.8824 53.3162L99.9703 48.2799L70.8259 47.7712L70.738 52.8075Z" fill="#BF00FF"/>
<path d="M70.6858 53.1691L99.817 54.1864L99.9928 49.1524L70.8616 48.1351L70.6858 53.1691Z" fill="#C300FF"/>
<path d="M70.6274 53.5295L99.7363 55.0551L99.9999 50.0249L70.891 48.4993L70.6274 53.5295Z" fill="#C800FF"/>
<path d="M70.5626 53.8892L99.6405 55.9226L99.9919 50.8977L70.914 48.8644L70.5626 53.8892Z" fill="#CC00FF"/>
<path d="M70.4916 54.2475L99.5296 56.788L99.9686 51.77L70.9306 49.2295L70.4916 54.2475Z" fill="#D000FF"/>
<path d="M70.4144 54.6043L99.4036 57.6512L99.9301 52.6417L70.9409 49.5948L70.4144 54.6043Z" fill="#D400FF"/>
<path d="M70.3309 54.96L99.2625 58.5124L99.8764 53.5128L70.9448 49.9604L70.3309 54.96Z" fill="#D900FF"/>
<path d="M70.2412 55.314L99.1065 59.3707L99.8075 54.3827L70.9423 50.3259L70.2412 55.314Z" fill="#DD00FF"/>
<path d="M70.1454 55.6665L98.9354 60.2264L99.7234 55.2513L70.9334 50.6914L70.1454 55.6665Z" fill="#E100FF"/>
<path d="M70.0434 56.0172L98.7495 61.0788L99.6242 56.1182L70.9181 51.0566L70.0434 56.0172Z" fill="#E500FF"/>
<path d="M69.9354 56.3662L98.5487 61.928L99.5099 56.9835L70.8965 51.4216L69.9354 56.3662Z" fill="#EA00FF"/>
<path d="M69.8212 56.713L98.3332 62.7734L99.3804 57.8463L70.8685 51.7859L69.8212 56.713Z" fill="#EE00FF"/>
<path d="M69.7011 57.0581L98.1029 63.6152L99.236 58.7072L70.8342 52.1501L69.7011 57.0581Z" fill="#F200FF"/>
<path d="M69.5749 57.4007L97.8579 64.4525L99.0765 59.565L70.7935 52.5132L69.5749 57.4007Z" fill="#F600FF"/>
<path d="M69.4427 57.7412L97.5984 65.2855L98.9021 60.42L70.7464 52.8757L69.4427 57.7412Z" fill="#FA00FF"/>
<path d="M69.3047 58.0793L97.3244 66.1138L98.7128 61.2719L70.6931 53.2373L69.3047 58.0793Z" fill="#FF00FF"/>
<path d="M69.1607 58.4151L97.0359 66.9375L98.5086 62.1204L70.6334 53.5981L69.1607 58.4151Z" fill="#FF00FB"/>
<path d="M69.0109 58.7483L96.7332 67.7558L98.2897 62.9652L70.5675 53.9577L69.0109 58.7483Z" fill="#FF00F7"/>
<path d="M68.8554 59.0786L96.4162 68.5686L98.0561 63.8059L70.4953 54.316L68.8554 59.0786Z" fill="#FF00F3"/>
<path d="M68.694 59.4062L96.085 69.3758L97.8078 64.6424L70.4168 54.6729L68.694 59.4062Z" fill="#FF00EE"/>
<path d="M68.527 59.7311L95.7399 70.1771L97.545 65.4746L70.3322 55.0286L68.527 59.7311Z" fill="#FF00EA"/>
<path d="M68.3544 60.053L95.3808 70.9724L97.2677 66.302L70.2413 55.3827L68.3544 60.053Z" fill="#FF00E6"/>
<path d="M68.1761 60.3718L95.0078 71.7612L96.976 67.1245L70.1443 55.7351L68.1761 60.3718Z" fill="#FF00E2"/>
<path d="M67.9924 60.6875L94.6212 72.5434L96.67 67.9418L70.0411 56.0858L67.9924 60.6875Z" fill="#FF00DD"/>
<path d="M67.8031 60.9997L94.221 73.3185L96.3497 68.7534L69.9319 56.4345L67.8031 60.9997Z" fill="#FF00D9"/>
<path d="M67.6084 61.3089L93.8073 74.0869L96.0154 69.5596L69.8165 56.7815L67.6084 61.3089Z" fill="#FF00D5"/>
<path d="M67.4084 61.6144L93.3802 74.8477L95.667 70.3596L69.6952 57.1263L67.4084 61.6144Z" fill="#FF00D1"/>
<path d="M67.203 61.9165L92.94 75.6011L95.3047 71.1535L69.5678 57.469L67.203 61.9165Z" fill="#FF00CC"/>
<path d="M66.9924 62.2149L92.4866 76.3466L94.9286 71.941L69.4344 57.8093L66.9924 62.2149Z" fill="#FF00C8"/>
<path d="M66.7767 62.5096L92.0203 77.0841L94.5389 72.7218L69.2952 58.1474L66.7767 62.5096Z" fill="#FF00C4"/>
<path d="M66.5558 62.8005L91.5413 77.8133L94.1356 73.4956L69.1501 58.4828L66.5558 62.8005Z" fill="#FF00C0"/>
<path d="M66.3299 63.0876L91.0495 78.5342L93.7188 74.2625L68.9991 58.8159L66.3299 63.0876Z" fill="#FF00BB"/>
<path d="M66.0989 63.3706L90.5453 79.2462L93.2887 75.0217L68.8424 59.1461L66.0989 63.3706Z" fill="#FF00B7"/>
<path d="M65.8631 63.6494L90.0287 79.9493L92.8454 75.7733L68.6799 59.4735L65.8631 63.6494Z" fill="#FF00B3"/>
<path d="M65.6225 63.9242L89.4999 80.6434L92.3891 76.5172L68.5117 59.7981L65.6225 63.9242Z" fill="#FF00AF"/>
<path d="M65.3771 64.1946L88.9591 81.3279L91.9198 77.2528L68.3379 60.1195L65.3771 64.1946Z" fill="#FF00AB"/>
<path d="M65.127 64.4608L88.4064 82.0031L91.4378 77.9803L68.1585 60.438L65.127 64.4608Z" fill="#FF00A6"/>
<path d="M64.8724 64.7228L87.842 82.6687L90.9432 78.6994L67.9735 60.7535L64.8724 64.7228Z" fill="#FF00A2"/>
<path d="M64.6132 64.9801L87.2661 83.3241L90.4361 79.4095L67.7831 61.0655L64.6132 64.9801Z" fill="#FF009E"/>
<path d="M64.3495 65.2328L86.6788 83.9694L89.9166 80.1108L67.5873 61.3742L64.3495 65.2328Z" fill="#FF009A"/>
<path d="M64.0815 65.4809L86.0804 84.6043L89.3851 80.8028L67.3861 61.6794L64.0815 65.4809Z" fill="#FF0095"/>
<path d="M63.8091 65.7244L85.471 85.2288L88.8415 81.4855L67.1796 61.9811L63.8091 65.7244Z" fill="#FF0091"/>
<path d="M63.5326 65.9629L84.8507 85.8424L88.2861 82.1585L66.9679 62.279L63.5326 65.9629Z" fill="#FF008D"/>
<path d="M63.2519 66.1967L84.2199 86.4452L87.719 82.8218L66.751 62.5733L63.2519 66.1967Z" fill="#FF0089"/>
<path d="M62.9673 66.4255L83.5787 87.0369L87.1404 83.4751L66.529 62.8637L62.9673 66.4255Z" fill="#FF0084"/>
<path d="M62.6786 66.6493L82.9272 87.6173L86.5505 84.1182L66.302 63.1503L62.6786 66.6493Z" fill="#FF0080"/>
<path d="M62.3861 66.8679L82.2656 88.1861L85.9495 84.7508L66.07 63.4326L62.3861 66.8679Z" fill="#FF007C"/>
<path d="M62.0899 67.0816L81.5943 88.7434L85.3376 85.373L65.8332 63.7111L62.0899 67.0816Z" fill="#FF0078"/>
<path d="M61.7899 67.2902L80.9133 89.2891L84.7148 85.9845L65.5914 63.9855L61.7899 67.2902Z" fill="#FF0073"/>
<path d="M61.4863 67.4933L80.2229 89.8226L84.0815 86.5848L65.345 64.2555L61.4863 67.4933Z" fill="#FF006F"/>
<path d="M61.1793 67.6909L79.5233 90.3438L83.4379 87.1739L65.0938 64.5209L61.1793 67.6909Z" fill="#FF006B"/>
<path d="M60.8688 67.8833L78.8147 90.853L82.784 87.7518L64.8381 64.7822L60.8688 67.8833Z" fill="#FF0067"/>
<path d="M60.5551 68.0704L78.0973 91.3497L82.1201 88.3183L64.5779 65.0389L60.5551 68.0704Z" fill="#FF0062"/>
<path d="M60.2381 68.2517L77.3714 91.8336L81.4465 88.8729L64.3132 65.2909L60.2381 68.2517Z" fill="#FF005E"/>
<path d="M59.918 68.4276L76.6371 92.305L80.7633 89.4158L64.0442 65.5384L59.918 68.4276Z" fill="#FF005A"/>
<path d="M59.5949 68.5979L75.8947 92.7634L80.0707 89.9467L63.7708 65.7812L59.5949 68.5979Z" fill="#FF0056"/>
<path d="M59.2688 68.7626L75.1445 93.2089L79.3689 90.4655L63.4933 66.0192L59.2688 68.7626Z" fill="#FF0052"/>
<path d="M58.94 68.9215L74.3865 93.6411L78.6583 90.9719L63.2117 66.2522L58.94 68.9215Z" fill="#FF004D"/>
<path d="M58.6084 69.0747L73.6212 94.0602L77.9388 91.4658L62.926 66.4804L58.6084 69.0747Z" fill="#FF0049"/>
<path d="M58.2742 69.222L72.8486 94.4657L77.2109 91.9472L62.6364 66.7035L58.2742 69.222Z" fill="#FF0045"/>
<path d="M57.9374 69.3634L72.0691 94.8577L76.4747 92.4156L62.343 66.9214L57.9374 69.3634Z" fill="#FF0041"/>
<path d="M57.5983 69.499L71.2829 95.236L75.7304 92.8712L62.0458 67.1343L57.5983 69.499Z" fill="#FF003C"/>
<path d="M57.2568 69.6288L70.4902 95.6007L74.9783 93.3139L61.7449 67.342L57.2568 69.6288Z" fill="#FF0038"/>
<path d="M56.9131 69.7524L69.6912 95.9513L74.2185 93.7431L61.4405 67.5443L56.9131 69.7524Z" fill="#FF0034"/>
<path d="M56.5674 69.8699L68.8862 96.2878L73.4514 94.159L61.1325 67.7412L56.5674 69.8699Z" fill="#FF0030"/>
<path d="M56.2196 69.9816L68.0755 96.6104L72.6771 94.5616L60.8212 67.9328L56.2196 69.9816Z" fill="#FF002B"/>
<path d="M55.8699 70.087L67.2593 96.9187L71.896 94.9506L60.5066 68.1189L55.8699 70.087Z" fill="#FF0027"/>
<path d="M55.5184 70.1863L66.4378 97.2127L71.1081 95.3258L60.1888 68.2994L55.5184 70.1863Z" fill="#FF0023"/>
<path d="M55.1653 70.2797L65.6114 97.4925L70.3139 95.6874L59.8679 68.4745L55.1653 70.2797Z" fill="#FF001F"/>
<path d="M54.8106 70.3668L64.7801 97.7578L69.5134 96.035L59.5439 68.644L54.8106 70.3668Z" fill="#FF001A"/>
<path d="M54.4544 70.4476L63.9444 98.0085L68.7071 96.3685L59.2171 68.8077L54.4544 70.4476Z" fill="#FF0016"/>
<path d="M54.0969 70.5222L63.1044 98.2444L67.895 96.6879L58.8875 68.9656L54.0969 70.5222Z" fill="#FF0012"/>
<path d="M53.7381 70.5907L62.2604 98.4659L67.0774 96.9932L58.5551 69.1179L53.7381 70.5907Z" fill="#FF000E"/>
<path d="M53.3782 70.6527L61.4127 98.6724L66.2547 97.284L58.2201 69.2642L53.3782 70.6527Z" fill="#FF0009"/>
<path d="M53.0172 70.7085L60.5615 98.8642L65.427 97.5605L57.8827 69.4048L53.0172 70.7085Z" fill="#FF0005"/>
<path d="M52.6553 70.758L59.7071 99.0411L64.5946 97.8225L57.5428 69.5394L52.6553 70.758Z" fill="#FF0001"/>
<path d="M52.2927 70.8011L58.8497 99.2029L63.7577 98.0698L57.2007 69.668L52.2927 70.8011Z" fill="#FF0300"/>
<path d="M51.9293 70.8382L57.9897 99.3501L62.9167 98.3028L56.8563 69.7909L51.9293 70.8382Z" fill="#FF0700"/>
<path d="M51.5653 70.8686L57.1272 99.4819L62.0717 98.5208L56.5099 69.9074L51.5653 70.8686Z" fill="#FF0C00"/>
<path d="M51.2009 70.8926L56.2625 99.5987L61.2231 98.724L56.1615 70.0179L51.2009 70.8926Z" fill="#FF1000"/>
<path d="M50.836 70.9106L55.3959 99.7006L60.371 98.9126L55.8111 70.1226L50.836 70.9106Z" fill="#FF1400"/>
<path d="M50.471 70.9219L54.5277 99.7871L59.5158 99.0861L55.4591 70.2208L50.471 70.9219Z" fill="#FF1800"/>
<path d="M50.1058 70.9269L53.6581 99.8585L58.6577 99.2447L55.1054 70.313L50.1058 70.9269Z" fill="#FF1D00"/>
<path d="M49.7405 70.9254L52.7874 99.9146L57.7969 99.3881L54.7501 70.3989L49.7405 70.9254Z" fill="#FF2100"/>
<path d="M49.3754 70.9177L51.9159 99.9557L56.9338 99.5167L54.3933 70.4787L49.3754 70.9177Z" fill="#FF2500"/>
<path d="M49.0104 70.9036L51.0437 99.9815L56.0686 99.6302L54.0352 70.5523L49.0104 70.9036Z" fill="#FF2900"/>
<path d="M48.6457 70.8831L50.1713 99.9921L55.2015 99.7285L53.6759 70.6195L48.6457 70.8831Z" fill="#FF2E00"/>
<path d="M48.2815 70.8564L49.2988 99.9876L54.3328 99.8118L53.3155 70.6806L48.2815 70.8564Z" fill="#FF3200"/>
<path d="M47.9177 70.8233L48.4264 99.9677L53.4628 99.8798L52.9541 70.7354L47.9177 70.8233Z" fill="#FF3600"/>
<path d="M47.5546 70.7839V99.9328H52.5918V70.7839H47.5546Z" fill="#FF3A00"/>
<path d="M47.1923 70.7379L46.6836 99.8824L51.7199 99.9703L52.2286 70.8258L47.1923 70.7379Z" fill="#FF3F00"/>
<path d="M46.8308 70.6857L45.8135 99.8169L50.8475 99.9926L51.8648 70.8615L46.8308 70.6857Z" fill="#FF4300"/>
<path d="M46.4702 70.6274L44.9447 99.7364L49.9749 100L51.5005 70.891L46.4702 70.6274Z" fill="#FF4700"/>
<path d="M46.1108 70.5627L44.0775 99.6406L49.1023 99.992L51.1356 70.9141L46.1108 70.5627Z" fill="#FF4B00"/>
<path d="M45.7525 70.4915L43.212 99.5295L48.2299 99.9685L50.7704 70.9305L45.7525 70.4915Z" fill="#FF5000"/>
<path d="M45.3955 70.4144L42.3486 99.4036L47.3582 99.9301L50.4051 70.9409L45.3955 70.4144Z" fill="#FF5400"/>
<path d="M45.0399 70.3309L41.4876 99.2625L46.4871 99.8764L50.0395 70.9447L45.0399 70.3309Z" fill="#FF5800"/>
<path d="M44.6859 70.2411L40.6291 99.1063L45.6172 99.8074L49.674 70.9421L44.6859 70.2411Z" fill="#FF5C00"/>
<path d="M44.3334 70.1453L39.7735 98.9354L44.7486 99.7234L49.3085 70.9333L44.3334 70.1453Z" fill="#FF6000"/>
<path d="M43.9827 70.0434L38.921 98.7495L43.8816 99.6241L48.9433 70.9181L43.9827 70.0434Z" fill="#FF6500"/>
<path d="M43.6338 69.9354L38.072 98.5487L43.0165 99.5099L48.5784 70.8965L43.6338 69.9354Z" fill="#FF6900"/>
<path d="M43.2868 69.8213L37.2264 98.3332L42.1535 99.3805L48.2139 70.8686L43.2868 69.8213Z" fill="#FF6D00"/>
<path d="M42.942 69.7012L36.3849 98.103L41.2929 99.2361L47.85 70.8343L42.942 69.7012Z" fill="#FF7100"/>
<path d="M42.5992 69.5749L35.5474 97.8579L40.4349 99.0765L47.4867 70.7935L42.5992 69.5749Z" fill="#FF7600"/>
<path d="M42.2587 69.4427L34.7144 97.5983L39.5799 98.902L47.1242 70.7464L42.2587 69.4427Z" fill="#FF7A00"/>
<path d="M41.9206 69.3046L33.886 97.3243L38.728 98.7127L46.7625 70.693L41.9206 69.3046Z" fill="#FF7E00"/>
<path d="M41.5849 69.1606L33.0625 97.0359L37.8796 98.5086L46.4019 70.6333L41.5849 69.1606Z" fill="#FF8200"/>
<path d="M41.2517 69.0108L32.2442 96.7331L37.0348 98.2896L46.0423 70.5674L41.2517 69.0108Z" fill="#FF8700"/>
<path d="M40.9213 68.8554L31.4313 96.4162L36.194 98.0562L45.684 70.4953L40.9213 68.8554Z" fill="#FF8B00"/>
<path d="M40.5936 68.6941L30.6241 96.0851L35.3574 97.8079L45.3269 70.4169L40.5936 68.6941Z" fill="#FF8F00"/>
<path d="M40.2688 68.527L29.8227 95.7399L34.5253 97.545L44.9713 70.3322L40.2688 68.527Z" fill="#FF9300"/>
<path d="M39.9469 68.3543L29.0276 95.3807L33.6979 97.2677L44.6173 70.2413L39.9469 68.3543Z" fill="#FF9800"/>
<path d="M39.6281 68.1762L28.2387 95.0079L32.8754 96.9761L44.2648 70.1444L39.6281 68.1762Z" fill="#FF9C00"/>
<path d="M39.3125 67.9923L27.4565 94.6212L32.0582 96.6699L43.9141 70.0411L39.3125 67.9923Z" fill="#FFA000"/>
<path d="M39.0001 67.8031L26.6812 94.221L31.2464 96.3497L43.5652 69.9319L39.0001 67.8031Z" fill="#FFA400"/>
<path d="M38.6911 67.6084L25.913 93.8072L30.4404 96.0153L43.2184 69.8165L38.6911 67.6084Z" fill="#FFA900"/>
<path d="M38.3855 67.4084L25.1521 93.3803L29.6402 95.6671L42.8736 69.6952L38.3855 67.4084Z" fill="#FFAD00"/>
<path d="M38.0834 67.2031L24.3988 92.94L28.8463 95.3048L42.5309 69.5679L38.0834 67.2031Z" fill="#FFB100"/>
<path d="M37.785 66.9924L23.6534 92.4866L28.0589 94.9287L42.1906 69.4345L37.785 66.9924Z" fill="#FFB500"/>
<path d="M37.4903 66.7766L22.9159 92.0203L27.2781 94.5388L41.8526 69.2951L37.4903 66.7766Z" fill="#FFB900"/>
<path d="M37.1995 66.5557L22.1867 91.5411L26.5043 94.1354L41.5171 69.15L37.1995 66.5557Z" fill="#FFBE00"/>
<path d="M36.9124 66.3296L21.4659 91.0493L25.7376 93.7186L41.1841 68.9989L36.9124 66.3296Z" fill="#FFC200"/>
<path d="M36.6294 66.0988L20.7538 90.5452L24.9783 93.2886L40.8539 68.8423L36.6294 66.0988Z" fill="#FFC600"/>
<path d="M36.3505 65.8632L20.0506 90.0288L24.2266 92.8455L40.5265 68.6799L36.3505 65.8632Z" fill="#FFCA00"/>
<path d="M36.0757 65.6225L19.3566 89.4999L23.4827 92.3891L40.2019 68.5117L36.0757 65.6225Z" fill="#FFCF00"/>
<path d="M35.8052 65.3771L18.6719 88.9591L22.7471 91.9198L39.8803 68.3379L35.8052 65.3771Z" fill="#FFD300"/>
<path d="M35.539 65.1269L17.9968 88.4063L22.0196 91.4377L39.5618 68.1583L35.539 65.1269Z" fill="#FFD700"/>
<path d="M35.2772 64.8722L17.3313 87.8419L21.3006 90.943L39.2465 67.9734L35.2772 64.8722Z" fill="#FFDB00"/>
<path d="M35.0199 64.6132L16.6759 87.2662L20.5905 90.4362L38.9345 67.7832L35.0199 64.6132Z" fill="#FFE000"/>
<path d="M34.7671 64.3495L16.0305 86.6788L19.8892 89.9166L38.6257 67.5873L34.7671 64.3495Z" fill="#FFE400"/>
<path d="M34.519 64.0814L15.3956 86.0803L19.1972 89.385L38.3206 67.386L34.519 64.0814Z" fill="#FFE800"/>
<path d="M34.2756 63.8091L14.7712 85.471L18.5145 88.8415L38.0189 67.1796L34.2756 63.8091Z" fill="#FFEC00"/>
<path d="M34.037 63.5326L14.1575 84.8507L17.8414 88.2861L37.7209 66.9679L34.037 63.5326Z" fill="#FFF100"/>
<path d="M33.8032 63.2519L13.5547 84.2198L17.1781 87.7189L37.4266 66.7509L33.8032 63.2519Z" fill="#FFF500"/>
<path d="M33.5745 62.9672L12.9631 83.5786L16.5249 87.1404L37.1362 66.529L33.5745 62.9672Z" fill="#FFF900"/>
<path d="M33.3507 62.6785L12.3827 82.927L15.8818 86.5504L36.8497 66.3019L33.3507 62.6785Z" fill="#FFFD00"/>
<path d="M33.1319 62.3861L11.8137 82.2656L15.249 85.9495L36.5672 66.07L33.1319 62.3861Z" fill="#FCFF00"/>
<path d="M32.9183 62.0897L11.2564 81.5941L14.6269 85.3374L36.2888 65.833L32.9183 62.0897Z" fill="#F8FF00"/>
<path d="M32.7099 61.7898L10.7109 80.9132L14.0156 84.7148L36.0145 65.5914L32.7099 61.7898Z" fill="#F4FF00"/>
<path d="M32.5068 61.4864L10.1774 80.223L13.4152 84.0816L35.7446 65.3451L32.5068 61.4864Z" fill="#F0FF00"/>
<path d="M32.309 61.1794L9.65605 79.5234L12.826 83.4379L35.479 65.0939L32.309 61.1794Z" fill="#ECFF00"/>
<path d="M32.1165 60.8688L9.14689 78.8146L12.248 82.7839L35.2177 64.8381L32.1165 60.8688Z" fill="#E7FF00"/>
<path d="M31.9296 60.555L8.65023 78.0972L11.6816 82.12L34.961 64.5778L31.9296 60.555Z" fill="#E3FF00"/>
<path d="M31.7482 60.2381L8.16619 77.3714L11.1269 81.4465L34.7089 64.3132L31.7482 60.2381Z" fill="#DFFF00"/>
<path d="M31.5723 59.9179L7.69489 76.6371L10.5841 80.7632L34.4614 64.0441L31.5723 59.9179Z" fill="#DBFF00"/>
<path d="M31.4019 59.5948L7.23639 75.8947L10.0531 80.0706L34.2186 63.7708L31.4019 59.5948Z" fill="#D6FF00"/>
<path d="M31.2373 59.2689L6.791 75.1445L9.53441 79.369L33.9807 63.4934L31.2373 59.2689Z" fill="#D2FF00"/>
<path d="M31.0784 58.9399L6.35874 74.3864L9.02801 78.6581L33.7477 63.2116L31.0784 58.9399Z" fill="#CEFF00"/>
<path d="M30.9253 58.6084L5.93979 73.6212L8.53409 77.9388L33.5196 62.9261L30.9253 58.6084Z" fill="#CAFF00"/>
<path d="M30.778 58.2742L5.53426 72.8487L8.05282 77.2109L33.2965 62.6365L30.778 58.2742Z" fill="#C5FF00"/>
<path d="M30.6365 57.9373L5.14229 72.069L7.58433 76.4746L33.0785 62.3429L30.6365 57.9373Z" fill="#C1FF00"/>
<path d="M30.5009 57.5981L4.76395 71.2827L7.12873 75.7302L32.8657 62.0456L30.5009 57.5981Z" fill="#BDFF00"/>
<path d="M30.3713 57.2569L4.3994 70.4902L6.6862 74.9783L32.6581 61.745L30.3713 57.2569Z" fill="#B9FF00"/>
<path d="M30.2476 56.9132L4.04873 69.6912L6.25686 74.2185L32.4557 61.4405L30.2476 56.9132Z" fill="#B4FF00"/>
<path d="M30.1299 56.5675L3.71206 68.8863L5.84084 73.4515L32.2587 61.1326L30.1299 56.5675Z" fill="#B0FF00"/>
<path d="M30.0184 56.2195L3.38951 68.0754L5.43829 72.677L32.0671 60.8211L30.0184 56.2195Z" fill="#ACFF00"/>
<path d="M29.9129 55.8699L3.08115 67.2593L5.04931 71.896L31.881 60.5066L29.9129 55.8699Z" fill="#A8FF00"/>
<path d="M29.8135 55.5185L2.78709 66.4379L4.67403 71.1082L31.7004 60.1888L29.8135 55.5185Z" fill="#A3FF00"/>
<path d="M29.7203 55.1653L2.50742 65.6114L4.31256 70.3139L31.5254 59.8679L29.7203 55.1653Z" fill="#9FFF00"/>
<path d="M29.6332 54.8105L2.24217 64.78L3.96496 69.5133L31.356 59.5438L29.6332 54.8105Z" fill="#9BFF00"/>
<path d="M29.5523 54.4545L1.99148 63.9444L3.6314 68.7071L31.1922 59.2172L29.5523 54.4545Z" fill="#97FF00"/>
<path d="M29.4777 54.0969L1.75543 63.1044L3.31198 67.895L31.0342 58.8875L29.4777 54.0969Z" fill="#93FF00"/>
<path d="M29.4093 53.738L1.53411 62.2603L3.00682 67.0773L30.8821 58.555L29.4093 53.738Z" fill="#8EFF00"/>
<path d="M29.3472 53.3781L1.32749 61.4126L2.7159 66.2546L30.7356 58.2201L29.3472 53.3781Z" fill="#8AFF00"/>
<path d="M29.2914 53.0171L1.13574 60.5614L2.43944 65.4269L30.5951 57.8826L29.2914 53.0171Z" fill="#86FF00"/>
<path d="M29.2419 52.6553L0.958869 59.707L2.17746 64.5945L30.4605 57.5428L29.2419 52.6553Z" fill="#82FF00"/>
<path d="M29.1987 52.2926L0.796872 58.8497L1.92998 63.7577L30.3318 57.2006L29.1987 52.2926Z" fill="#7DFF00"/>
<path d="M29.1619 51.9293L0.649942 57.9897L1.69722 62.9167L30.2091 56.8563L29.1619 51.9293Z" fill="#79FF00"/>
<path d="M29.1314 51.5651L0.518009 57.127L1.47914 62.0716L30.0925 56.5097L29.1314 51.5651Z" fill="#75FF00"/>
<path d="M29.1072 51.2007L0.40114 56.2624L1.27583 61.223L29.9819 56.1613L29.1072 51.2007Z" fill="#71FF00"/>
<path d="M29.0894 50.8361L0.299395 55.396L1.08737 60.371L29.8774 55.8112L29.0894 50.8361Z" fill="#6CFF00"/>
<path d="M29.0781 50.4709L0.212844 54.5277L0.913874 59.5158L29.7791 55.459L29.0781 50.4709Z" fill="#68FF00"/>
<path d="M29.073 50.1057L0.141417 53.6581L0.755286 58.6576L29.6869 55.1053L29.073 50.1057Z" fill="#64FF00"/>
<path d="M29.0743 49.7405L0.0851168 52.7874L0.611638 57.7969L29.6009 54.75L29.0743 49.7405Z" fill="#60FF00"/>
<path d="M29.0821 49.3753L0.0440694 51.9158L0.483083 56.9337L29.5211 54.3932L29.0821 49.3753Z" fill="#5BFF00"/>
<path d="M29.0962 49.0104L0.0182711 51.0438L0.369642 56.0686L29.4475 54.0353L29.0962 49.0104Z" fill="#57FF00"/>
<path d="M29.1166 48.6457L0.00766673 50.1712L0.271289 55.2014L29.3802 53.6759L29.1166 48.6457Z" fill="#53FF00"/>
<path d="M29.1435 48.2814L0.0123113 49.2987L0.188104 54.3327L29.3193 53.3155L29.1435 48.2814Z" fill="#4FFF00"/>
<path d="M29.1766 47.9177L0.0321398 48.4264L0.120049 53.4627L29.2645 52.954L29.1766 47.9177Z" fill="#4AFF00"/>
<path d="M29.2161 47.5546H0.0672306V52.5918H29.2161V47.5546Z" fill="#46FF00"/>
<path d="M29.262 47.1923L0.117499 46.6836L0.0295894 51.7199L29.1741 52.2287L29.262 47.1923Z" fill="#42FF00"/>
<path d="M29.3141 46.8308L0.18297 45.8135L0.00717711 50.8476L29.1383 51.8649L29.3141 46.8308Z" fill="#3EFF00"/>
<path d="M29.3726 46.4703L0.263622 44.9447L0 49.9749L29.1089 51.5005L29.3726 46.4703Z" fill="#3AFF00"/>
<path d="M29.4373 46.1107L0.359396 44.0774L0.00802453 49.1022L29.0859 51.1356L29.4373 46.1107Z" fill="#35FF00"/>
<path d="M29.5084 45.7524L0.470369 43.2119L0.0313552 48.2299L29.0693 50.7704L29.5084 45.7524Z" fill="#31FF00"/>
<path d="M29.5856 45.3954L0.596343 42.3485L0.0698208 47.358L29.059 50.4049L29.5856 45.3954Z" fill="#2DFF00"/>
<path d="M29.6691 45.0398L0.737431 41.4875L0.123562 46.487L29.0552 50.0394L29.6691 45.0398Z" fill="#29FF00"/>
<path d="M29.7587 44.6858L0.893469 40.6291L0.192439 45.6172L29.0577 49.6739L29.7587 44.6858Z" fill="#24FF00"/>
<path d="M29.8545 44.3335L1.0645 39.7736L0.276525 44.7487L29.0666 49.3086L29.8545 44.3335Z" fill="#20FF00"/>
<path d="M29.9565 43.9827L1.25041 38.921L0.375728 43.8816L29.0818 48.9433L29.9565 43.9827Z" fill="#1CFF00"/>
<path d="M30.0645 43.6337L1.4512 38.0718L0.490072 43.0164L29.1034 48.5783L30.0645 43.6337Z" fill="#18FF00"/>
<path d="M30.1787 43.2867L1.6668 37.2263L0.619522 42.1534L29.1314 48.2138L30.1787 43.2867Z" fill="#13FF00"/>
<path d="M30.2989 42.9419L1.89708 36.3848L0.763976 41.2928L29.1658 47.8499L30.2989 42.9419Z" fill="#0FFF00"/>
<path d="M30.425 42.5991L2.14199 35.5474L0.923403 40.4348L29.2065 47.4866L30.425 42.5991Z" fill="#0BFF00"/>
<path d="M30.5572 42.2587L2.40153 34.7144L1.09782 39.5799L29.2535 47.1242L30.5572 42.2587Z" fill="#07FF00"/>
<path d="M30.6953 41.9205L2.67556 33.886L1.28714 38.728L29.3069 46.7625L30.6953 41.9205Z" fill="#02FF00"/>
<path d="M30.8392 41.5848L2.96396 33.0625L1.49125 37.8795L29.3665 46.4018L30.8392 41.5848Z" fill="#00FF02"/>
<path d="M30.989 41.2518L3.26674 32.2443L1.71019 37.0349L29.4324 46.0424L30.989 41.2518Z" fill="#00FF06"/>
<path d="M31.1446 40.9214L3.58377 31.4314L1.94384 36.1941L29.5047 45.684L31.1446 40.9214Z" fill="#00FF0A"/>
<path d="M31.3059 40.5936L3.91486 30.6241L2.19207 35.3574L29.5831 45.3269L31.3059 40.5936Z" fill="#00FF0F"/>
<path d="M31.4729 40.2687L4.26007 29.8227L2.45493 34.5252L29.6678 44.9713L31.4729 40.2687Z" fill="#00FF13"/>
<path d="M31.6455 39.9469L4.61915 29.0276L2.73221 33.6979L29.7586 44.6173L31.6455 39.9469Z" fill="#00FF17"/>
<path d="M31.8238 39.628L4.99209 28.2386L3.02394 32.8753L29.8556 44.2647L31.8238 39.628Z" fill="#00FF1B"/>
<path d="M32.0076 39.3125L5.37873 27.4566L3.32995 32.0583L29.9588 43.9142L32.0076 39.3125Z" fill="#00FF1F"/>
<path d="M32.1969 39.0001L5.77898 26.6812L3.65021 31.2464L30.0681 43.5653L32.1969 39.0001Z" fill="#00FF24"/>
<path d="M32.3915 38.6911L6.19267 25.9131L3.98454 30.4404L30.1834 43.2185L32.3915 38.6911Z" fill="#00FF28"/>
<path d="M32.5916 38.3855L6.61972 25.1521L4.33292 29.6402L30.3048 42.8736L32.5916 38.3855Z" fill="#00FF2C"/>
<path d="M32.7969 38.0835L7.05996 24.3989L4.69518 28.8464L30.4321 42.531L32.7969 38.0835Z" fill="#00FF30"/>
<path d="M33.0075 37.785L7.51331 23.6534L5.07127 28.0589L30.5655 42.1906L33.0075 37.785Z" fill="#00FF35"/>
<path d="M33.2233 37.4902L7.97959 22.9157L5.46103 27.278L30.7047 41.8525L33.2233 37.4902Z" fill="#00FF39"/>
<path d="M33.4442 37.1993L8.45868 22.1865L5.86437 26.5042L30.8499 41.517L33.4442 37.1993Z" fill="#00FF3D"/>
<path d="M33.6701 36.9124L8.95044 21.4658L6.28118 25.7375L31.0008 41.1841L33.6701 36.9124Z" fill="#00FF41"/>
<path d="M33.901 36.6294L9.45463 20.7538L6.71122 24.9783L31.1576 40.8539L33.901 36.6294Z" fill="#00FF46"/>
<path d="M34.1368 36.3504L9.97125 20.0505L7.15453 24.2265L31.3201 40.5263L34.1368 36.3504Z" fill="#00FF4A"/>
<path d="M34.3774 36.0758L10.5 19.3566L7.61088 23.4828L31.4883 40.2019L34.3774 36.0758Z" fill="#00FF4E"/>
<path d="M34.6228 35.8052L11.0408 18.6719L8.08009 22.7471L31.6621 39.8804L34.6228 35.8052Z" fill="#00FF52"/>
<path d="M34.8729 35.5389L11.5935 17.9967L8.56213 22.0195L31.8415 39.5617L34.8729 35.5389Z" fill="#00FF57"/>
<path d="M35.1276 35.2771L12.1579 17.3313L9.05677 21.3006L32.0264 39.2464L35.1276 35.2771Z" fill="#00FF5B"/>
<path d="M35.3868 35.0198L12.7339 16.6758L9.56391 20.5904L32.2169 38.9344L35.3868 35.0198Z" fill="#00FF5F"/>
<path d="M35.6504 34.7671L13.3211 16.0305L10.0833 19.8892L32.4127 38.6257L35.6504 34.7671Z" fill="#00FF63"/>
<path d="M35.9184 34.519L13.9195 15.3956L10.6148 19.1972L32.6138 38.3206L35.9184 34.519Z" fill="#00FF68"/>
<path d="M36.1908 34.2756L14.5289 14.7712L11.1585 18.5145L32.8203 38.0189L36.1908 34.2756Z" fill="#00FF6C"/>
<path d="M36.4673 34.0371L15.1492 14.1576L11.7139 17.8415L33.032 37.721L36.4673 34.0371Z" fill="#00FF70"/>
<path d="M36.748 33.8033L15.78 13.5548L12.281 17.1782L33.2489 37.4267L36.748 33.8033Z" fill="#00FF74"/>
<path d="M37.0327 33.5743L16.4213 12.963L12.8595 16.5247L33.4709 37.1361L37.0327 33.5743Z" fill="#00FF78"/>
<path d="M37.3213 33.3505L17.0728 12.3825L13.4494 15.8816L33.698 36.8495L37.3213 33.3505Z" fill="#00FF7D"/>
<path d="M37.6138 33.1319L17.7343 11.8138L14.0504 15.2491L33.9299 36.5673L37.6138 33.1319Z" fill="#00FF81"/>
<path d="M37.9101 32.9183L18.4057 11.2564L14.6624 14.6269L34.1668 36.2888L37.9101 32.9183Z" fill="#00FF85"/>
<path d="M38.2101 32.7098L19.0867 10.7109L15.2851 14.0155L34.4085 36.0145L38.2101 32.7098Z" fill="#00FF89"/>
<path d="M38.5136 32.5067L19.7771 10.1774L15.9184 13.4152L34.655 35.7445L38.5136 32.5067Z" fill="#00FF8E"/>
<path d="M38.8207 32.3089L20.4767 9.65599L16.5621 12.8259L34.9061 35.4789L38.8207 32.3089Z" fill="#00FF92"/>
<path d="M39.1311 32.1166L21.1853 9.14696L17.216 12.2481L35.1618 35.2178L39.1311 32.1166Z" fill="#00FF96"/>
<path d="M39.4448 31.9296L21.9026 8.65024L17.8798 11.6816L35.422 34.961L39.4448 31.9296Z" fill="#00FF9A"/>
<path d="M39.7618 31.7482L22.6285 8.16619L18.5534 11.1269L35.6867 34.7089L39.7618 31.7482Z" fill="#00FF9F"/>
<path d="M40.0819 31.5723L23.3628 7.69489L19.2367 10.5841L35.9558 34.4614L40.0819 31.5723Z" fill="#00FFA3"/>
<path d="M40.4051 31.402L24.1052 7.23645L19.9292 10.0532L36.2291 34.2187L40.4051 31.402Z" fill="#00FFA7"/>
<path d="M40.7311 31.2373L24.8555 6.79101L20.631 9.53442L36.5067 33.9807L40.7311 31.2373Z" fill="#00FFAB"/>
<path d="M41.06 31.0784L25.6134 6.35868L21.3417 9.02794L36.7882 33.7476L41.06 31.0784Z" fill="#00FFB0"/>
<path d="M41.3915 30.9253L26.3787 5.93979L22.0611 8.53409L37.0739 33.5196L41.3915 30.9253Z" fill="#00FFB4"/>
<path d="M41.7258 30.7778L27.1513 5.53414L22.7891 8.05269L37.3635 33.2964L41.7258 30.7778Z" fill="#00FFB8"/>
<path d="M42.0625 30.6364L27.9308 5.14217L23.5252 7.58421L37.6569 33.0784L42.0625 30.6364Z" fill="#00FFBC"/>
<path d="M42.4017 30.5008L28.7171 4.76382L24.2696 7.1286L37.9541 32.8656L42.4017 30.5008Z" fill="#00FFC1"/>
<path d="M42.7431 30.3712L29.5098 4.39934L25.0217 6.68614L38.255 32.658L42.7431 30.3712Z" fill="#00FFC5"/>
<path d="M43.0868 30.2476L30.3087 4.04874L25.7814 6.25686L38.5594 32.4557L43.0868 30.2476Z" fill="#00FFC9"/>
<path d="M43.4325 30.13L31.1137 3.71212L26.5485 5.8409L38.8674 32.2588L43.4325 30.13Z" fill="#00FFCD"/>
<path d="M43.7803 30.0184L31.9244 3.38951L27.3228 5.43829L39.1787 32.0671L43.7803 30.0184Z" fill="#00FFD1"/>
<path d="M44.13 29.9129L32.7406 3.08115L28.1039 5.04931L39.4933 31.881L44.13 29.9129Z" fill="#00FFD6"/>
<path d="M44.4815 29.8134L33.5621 2.78704L28.8918 4.67397L39.8111 31.7004L44.4815 29.8134Z" fill="#00FFDA"/>
<path d="M44.8346 29.7202L34.3886 2.50735L29.686 4.31249L40.1321 31.5253L44.8346 29.7202Z" fill="#00FFDE"/>
<path d="M45.1894 29.6332L35.2198 2.24217L30.4865 3.96496L40.456 31.356L45.1894 29.6332Z" fill="#00FFE2"/>
<path d="M45.5455 29.5523L36.0556 1.99142L31.2929 3.63134L40.7828 31.1922L45.5455 29.5523Z" fill="#00FFE7"/>
<path d="M45.9031 29.4777L36.8955 1.75542L32.105 3.31197L41.1125 31.0342L45.9031 29.4777Z" fill="#00FFEB"/>
<path d="M46.2619 29.4092L37.7396 1.53399L32.9225 3.0067L41.4449 30.8819L46.2619 29.4092Z" fill="#00FFEF"/>
<path d="M46.6218 29.3471L38.5873 1.32736L33.7453 2.71578L41.7798 30.7355L46.6218 29.3471Z" fill="#00FFF3"/>
<path d="M46.9827 29.2914L39.4384 1.13568L34.5729 2.43938L42.1172 30.5951L46.9827 29.2914Z" fill="#00FFF8"/>
<path d="M47.3446 29.2419L40.2928 0.958871L35.4053 2.17746L42.4571 30.4605L47.3446 29.2419Z" fill="#00FFFC"/>
<path d="M47.7073 29.1987L41.1502 0.796876L36.2422 1.92998L42.7993 30.3318L47.7073 29.1987Z" fill="#00FEFF"/>
<path d="M48.0707 29.1618L42.0103 0.649879L37.0832 1.69715L43.1436 30.2091L48.0707 29.1618Z" fill="#00FAFF"/>
<path d="M48.4346 29.1312L42.8727 0.517885L37.9282 1.47901L43.49 30.0924L48.4346 29.1312Z" fill="#00F5FF"/>
<path d="M48.7991 29.1073L43.7374 0.401204L38.7768 1.27589L43.8385 29.982L48.7991 29.1073Z" fill="#00F1FF"/>
<path d="M49.1639 29.0894L44.604 0.299397L39.6289 1.08738L44.1888 29.8774L49.1639 29.0894Z" fill="#00EDFF"/>
<path d="M49.529 29.0781L45.4722 0.212844L40.4841 0.913875L44.5409 29.7791L49.529 29.0781Z" fill="#00E9FF"/>
<path d="M49.8942 29.0729L46.3418 0.14123L41.3422 0.7551L44.8946 29.6867L49.8942 29.0729Z" fill="#00E4FF"/>
<path d="M50.2594 29.0743L47.2125 0.0851182L42.203 0.61164L45.2499 29.6009L50.2594 29.0743Z" fill="#00E0FF"/>
<path d="M50.6246 29.0821L48.0841 0.0440706L43.0661 0.483084L45.6066 29.5211L50.6246 29.0821Z" fill="#00DCFF"/>
<path d="M50.9895 29.0961L48.9562 0.0182109L43.9314 0.369582L45.9647 29.4475L50.9895 29.0961Z" fill="#00D8FF"/>
<path d="M51.3542 29.1166L49.8287 0.00766711L44.7985 0.271289L46.324 29.3802L51.3542 29.1166Z" fill="#00D4FF"/>
<path d="M51.7185 29.1433L50.7012 0.0121868L45.6671 0.18798L46.6844 29.3191L51.7185 29.1433Z" fill="#00CFFF"/>
<path d="M52.0822 29.1765L51.5735 0.0320825L46.5371 0.119992L47.0459 29.2645L52.0822 29.1765Z" fill="#00CBFF"/>
<path d="M52.4453 29.2161V0.067167H47.4082V29.2161H52.4453Z" fill="#00C7FF"/>
<path d="M52.8077 29.262L53.3164 0.117505L48.28 0.0295955L47.7713 29.1741L52.8077 29.262Z" fill="#00C3FF"/>
<path d="M53.1692 29.3141L54.1864 0.182969L49.1524 0.00717608L48.1351 29.1383L53.1692 29.3141Z" fill="#00BEFF"/>
<path d="M53.5297 29.3726L55.0552 0.263622L50.025 0L48.4995 29.1089L53.5297 29.3726Z" fill="#00BAFF"/>
<path d="M53.8892 29.4372L55.9225 0.35934L50.8976 0.00796882L48.8643 29.0859L53.8892 29.4372Z" fill="#00B6FF"/>
<path d="M54.2474 29.5083L56.7879 0.470308L51.77 0.0312951L49.2295 29.0693L54.2474 29.5083Z" fill="#00B2FF"/>
<path d="M54.6044 29.5855L57.6513 0.596279L52.6418 0.0697571L49.5949 29.059L54.6044 29.5855Z" fill="#00ADFF"/>
<path d="M54.96 29.6691L58.5124 0.737435L53.5128 0.123565L49.9604 29.0552L54.96 29.6691Z" fill="#00A9FF"/>
<path d="M55.3141 29.7586L59.3708 0.893409L54.3827 0.192378L50.326 29.0576L55.3141 29.7586Z" fill="#00A5FF"/>
<path d="M55.6665 29.8545L60.2264 1.06444L55.2513 0.276466L50.6914 29.0665L55.6665 29.8545Z" fill="#00A1FF"/>
<path d="M56.0172 29.9564L61.0789 1.25029L56.1183 0.375606L51.0567 29.0817L56.0172 29.9564Z" fill="#009CFF"/>
<path d="M56.3661 30.0646L61.928 1.4512L56.9834 0.490073L51.4216 29.1034L56.3661 30.0646Z" fill="#0098FF"/>
<path d="M56.7131 30.1786L62.7735 1.66667L57.8465 0.6194L51.7861 29.1313L56.7131 30.1786Z" fill="#0094FF"/>
<path d="M57.058 30.2988L63.6151 1.89702L58.7071 0.763919L52.15 29.1657L57.058 30.2988Z" fill="#0090FF"/>
<path d="M57.4007 30.4251L64.4525 2.14206L59.565 0.923468L52.5132 29.2065L57.4007 30.4251Z" fill="#008BFF"/>
<path d="M57.7412 30.5571L65.2855 2.40146L60.4201 1.09776L52.8758 29.2534L57.7412 30.5571Z" fill="#0087FF"/>
<path d="M58.0794 30.6953L66.1139 2.67556L61.2719 1.28714L53.2374 29.3069L58.0794 30.6953Z" fill="#0083FF"/>
<path d="M58.4151 30.8392L66.9374 2.96397L62.1204 1.49126L53.5981 29.3665L58.4151 30.8392Z" fill="#007FFF"/>
<path d="M58.7482 30.9889L67.7557 3.26668L62.9651 1.71013L53.9576 29.4324L58.7482 30.9889Z" fill="#007BFF"/>
<path d="M59.0786 31.1445L68.5686 3.58371L63.8059 1.94379L54.316 29.5046L59.0786 31.1445Z" fill="#0076FF"/>
<path d="M59.4063 31.3059L69.3759 3.91486L64.6425 2.19207L54.673 29.5831L59.4063 31.3059Z" fill="#0072FF"/>
<path d="M59.7312 31.4728L70.1772 4.26L65.4747 2.45486L55.0286 29.6677L59.7312 31.4728Z" fill="#006EFF"/>
<path d="M60.053 31.6454L70.9724 4.61902L66.302 2.73208L55.3827 29.7585L60.053 31.6454Z" fill="#006AFF"/>
<path d="M60.3718 31.8238L71.7612 4.9921L67.1245 3.02394L55.7351 29.8556L60.3718 31.8238Z" fill="#0065FF"/>
<path d="M60.6875 32.0075L72.5434 5.37867L67.9418 3.32989L56.0858 29.9587L60.6875 32.0075Z" fill="#0061FF"/>
<path d="M60.9998 32.1969L73.3187 5.77905L68.7535 3.65027L56.4347 30.0681L60.9998 32.1969Z" fill="#005DFF"/>
<path d="M61.3089 32.3914L74.0869 6.19254L69.5596 3.98442L56.7815 30.1833L61.3089 32.3914Z" fill="#0059FF"/>
<path d="M61.6144 32.5915L74.8478 6.6196L70.3597 4.33279L57.1263 30.3047L61.6144 32.5915Z" fill="#0054FF"/>
<path d="M61.9165 32.797L75.6011 7.06002L71.1536 4.69524L57.469 30.4322L61.9165 32.797Z" fill="#0050FF"/>
<path d="M62.2149 33.0075L76.3466 7.51331L71.941 5.07127L57.8093 30.5655L62.2149 33.0075Z" fill="#004CFF"/>
<path d="M62.5096 33.2232L77.0841 7.97953L72.7218 5.46097L58.1473 30.7047L62.5096 33.2232Z" fill="#0048FF"/>
<path d="M62.8005 33.4442L77.8133 8.45868L73.4957 5.86437L58.4829 30.8499L62.8005 33.4442Z" fill="#0043FF"/>
<path d="M63.0875 33.6701L78.5341 8.95044L74.2624 6.28118L58.8158 31.0009L63.0875 33.6701Z" fill="#003FFF"/>
<path d="M63.3705 33.901L79.2461 9.45463L75.0217 6.71123L59.146 31.1576L63.3705 33.901Z" fill="#003BFF"/>
<path d="M63.6494 34.1368L79.9493 9.97125L75.7733 7.15454L59.4735 31.3201L63.6494 34.1368Z" fill="#0037FF"/>
<path d="M63.9242 34.3774L80.6433 10.5L76.5172 7.61082L59.798 31.4882L63.9242 34.3774Z" fill="#0032FF"/>
<path d="M64.1947 34.6228L81.328 11.0408L77.2529 8.08009L60.1196 31.6621L64.1947 34.6228Z" fill="#002EFF"/>
<path d="M64.4609 34.8729L82.0032 11.5935L77.9804 8.56214L60.4381 31.8415L64.4609 34.8729Z" fill="#002AFF"/>
<path d="M64.7227 35.1275L82.6686 12.1579L78.6993 9.05671L60.7534 32.0264L64.7227 35.1275Z" fill="#0026FF"/>
<path d="M64.98 35.3868L83.3241 12.7338L79.4095 9.56384L61.0655 32.2168L64.98 35.3868Z" fill="#0022FF"/>
<path d="M51.4758 98.2607H48.6144C48.4817 98.2124 48.3485 98.2004 48.2145 98.2004C46.6868 98.128 45.1703 98.0049 43.6669 97.8005C40.8548 97.4367 38.0897 96.8182 35.3982 95.9584C30.7789 94.4802 26.4747 92.3589 22.4858 89.5945C18.7868 87.0241 15.5145 83.9941 12.6647 80.5039C9.30501 76.4065 6.6871 71.8847 4.83123 66.916C3.16961 62.5038 2.17568 57.935 1.87188 53.2192C1.87188 52.9646 1.82362 52.71 1.73917 52.4554V47.4735C1.82362 47.2539 1.85982 47.0246 1.87188 46.7947C1.93221 45.6671 2.05286 44.5395 2.20006 43.4251C2.92807 38.0435 4.52743 32.9392 6.98922 28.1026C8.68655 24.7687 10.748 21.667 13.1719 18.8046C15.5729 15.9688 18.2646 13.4344 21.2464 11.2168C26.1087 7.60402 31.456 4.99818 37.2994 3.39906C40.1362 2.62423 43.035 2.11508 45.968 1.87185C46.4887 1.82359 47.0355 1.87185 47.5563 1.73913H52.4545C52.83 1.84772 53.2185 1.78739 53.5937 1.82359C55.5347 1.9925 57.4623 2.23646 59.3768 2.61169C65.4031 3.79962 70.9917 6.05485 76.1578 9.38653C80.1716 11.9682 83.7118 15.0832 86.8031 18.7074C89.2893 21.6168 91.3978 24.7808 93.12 28.1976C95.1568 32.2349 96.6112 36.4642 97.4374 40.9124C97.8732 43.2637 98.2014 45.6396 98.2125 48.0398C98.2125 48.1991 98.2487 48.368 98.2607 48.5243V51.3852C98.2125 51.5662 98.2125 51.7605 98.2004 51.9545C98.2004 52.4146 98.2004 52.8767 98.1642 53.3367C97.9446 56.2707 97.4852 59.1671 96.7572 62.0275C95.3632 67.3977 93.1188 72.3797 90.0028 76.9729C87.6866 80.3914 84.9837 83.4707 81.8791 86.1972C78.7877 88.9126 75.404 91.2038 71.7299 93.0572C67.4974 95.1899 63.048 96.67 58.3797 97.4808C56.5859 97.7957 54.779 98.0013 52.9608 98.1106C52.4818 98.1661 51.9736 98.1545 51.4758 98.2607Z" fill="#383838"/>
<path d="M37.4474 29.9753C37.4136 30.8621 37.5712 31.8315 37.8324 32.8011C38.3301 34.646 39.1551 36.3364 40.1278 37.9331C42.3438 41.5642 45.1369 44.673 48.1675 47.5593C48.4157 47.7965 48.7111 47.9969 49.0275 48.1496C49.3443 48.3144 49.6607 48.3144 49.9881 48.1731C50.3045 48.0319 50.5876 47.8308 50.8252 47.5698C51.8769 46.4824 52.9165 45.3934 53.912 44.2696C55.3139 42.6729 56.6489 41.0302 57.8588 39.268C58.9564 37.6715 59.9395 35.9919 60.6625 34.1708C61.3855 32.3608 61.737 30.4938 61.4996 28.5308C61.1038 25.2916 59.7814 22.547 57.4175 20.395C54.6226 17.8545 51.367 16.8373 47.7033 17.4039C41.7443 18.3274 37.4244 23.8148 37.4474 29.9753Z" fill="url(#paint0_radial_6_3)" style="mix-blend-mode:lighten"/>
<path d="M68.2864 74.1269C67.5363 74.1497 66.6942 74.0569 65.8523 73.8781C63.3614 73.3328 61.2457 72.2003 59.6198 70.1924C58.631 68.968 57.7997 67.641 57.0832 66.2454C56.2408 64.601 55.537 62.8878 54.9232 61.1535C54.1731 59.0557 53.5363 56.9121 53.0461 54.7455C52.7738 53.5317 53.0798 52.7712 54.4223 52.3531C56.1277 51.8202 57.8457 51.3438 59.597 50.9575C62.4964 50.3221 65.4189 49.9146 68.3998 50.0151C69.2419 50.0489 70.0822 50.1392 70.9135 50.2867C73.3247 50.7069 75.3714 51.8184 77.043 53.5757C79.8983 56.5698 81.034 60.1424 80.3299 64.2147C79.318 70.0337 74.1542 74.1728 68.2864 74.1269Z" fill="url(#paint1_radial_6_3)"/>
<path d="M30.7297 74.1269C31.4797 74.1497 32.3218 74.0569 33.1637 73.8781C35.6547 73.3328 37.7703 72.2003 39.3962 70.1924C40.385 68.968 41.2163 67.641 41.9328 66.2454C42.7752 64.601 43.4791 62.8878 44.0928 61.1535C44.8429 59.0557 45.4797 56.9121 45.97 54.7455C46.2422 53.5317 45.9362 52.7712 44.5937 52.3531C42.8884 51.8202 41.1703 51.3438 39.4191 50.9575C36.5197 50.3221 33.5972 49.9146 30.6163 50.0151C29.7741 50.0489 28.9338 50.1392 28.1025 50.2867C25.6913 50.7069 23.6446 51.8184 21.973 53.5757C19.1177 56.5698 17.9821 60.1424 18.6862 64.2147C19.698 70.0337 24.8618 74.1728 30.7297 74.1269Z" fill="url(#paint2_radial_6_3)"/>
<defs>
<radialGradient id="paint0_radial_6_3" cx="0" cy="0" r="1" gradientUnits="userSpaceOnUse" gradientTransform="translate(50.9676 94.8161) rotate(3.75437) scale(53.0372 76.4665)">
<stop stop-color="white"/>
<stop offset="1" stop-color="#009BD8"/>
</radialGradient>
<radialGradient id="paint1_radial_6_3" cx="0" cy="0" r="1" gradientUnits="userSpaceOnUse" gradientTransform="translate(0.486046 16.5933) rotate(24.5392) scale(104.618 61.3088)">
<stop stop-color="white"/>
<stop offset="1" stop-color="#FF3044"/>
</radialGradient>
<radialGradient id="paint2_radial_6_3" cx="0" cy="0" r="1" gradientUnits="userSpaceOnUse" gradientTransform="translate(45.777 52.9799) rotate(146.321) scale(28.5607 12.9823)">
<stop stop-color="white"/>
<stop offset="1" stop-color="#FCFF7C"/>
</radialGradient>
</defs>
</svg>
