<svg width="67" height="100" viewBox="0 0 67 100" fill="none" xmlns="http://www.w3.org/2000/svg">
<path d="M16.6667 100C21.0869 100 25.3262 98.2441 28.4518 95.1185C31.5774 91.9929 33.3333 87.7537 33.3333 83.3334V66.6667H16.6667C12.2464 66.6667 8.00716 68.4227 4.88155 71.5483C1.75595 74.6739 0 78.9131 0 83.3334C0 87.7537 1.75595 91.9929 4.88155 95.1185C8.00716 98.2441 12.2464 100 16.6667 100Z" fill="#0ACF83"/>
<path d="M0 49.9999C0 45.5796 1.75595 41.3404 4.88155 38.2148C8.00716 35.0892 12.2464 33.3333 16.6667 33.3333H33.3333V66.6666H16.6667C12.2464 66.6666 8.00716 64.9106 4.88155 61.785C1.75595 58.6594 0 54.4202 0 49.9999Z" fill="#A259FF"/>
<path d="M0 16.6667C-1.34827e-06 12.2486 1.75416 8.01139 4.87695 4.88615C7.99974 1.76092 12.2356 0.00345158 16.6536 0L33.3203 0V33.3333H16.6667C12.2464 33.3333 8.00716 31.5774 4.88155 28.4518C1.75595 25.3262 0 21.0869 0 16.6667Z" fill="#F24E1E"/>
<path d="M33.3333 0H50C54.4203 0 58.6595 1.75595 61.7851 4.88155C64.9107 8.00716 66.6667 12.2464 66.6667 16.6667C66.6667 21.0869 64.9107 25.3262 61.7851 28.4518C58.6595 31.5774 54.4203 33.3333 50 33.3333H33.3333V0Z" fill="#FF7262"/>
<path d="M66.6667 49.9999C66.6667 54.4202 64.9107 58.6594 61.7851 61.785C58.6595 64.9106 54.4203 66.6666 50 66.6666C45.5797 66.6666 41.3405 64.9106 38.2149 61.785C35.0893 58.6594 33.3333 54.4202 33.3333 49.9999C33.3333 45.5796 35.0893 41.3404 38.2149 38.2148C41.3405 35.0892 45.5797 33.3333 50 33.3333C54.4203 33.3333 58.6595 35.0892 61.7851 38.2148C64.9107 41.3404 66.6667 45.5796 66.6667 49.9999Z" fill="#1ABCFE"/>
</svg>
