<svg width="100" height="100" viewBox="0 0 100 100" fill="none" xmlns="http://www.w3.org/2000/svg">
<mask id="mask0_5_47" style="mask-type:luminance" maskUnits="userSpaceOnUse" x="0" y="0" width="100" height="100">
<path d="M0 0H100V100H0V0Z" fill="white"/>
</mask>
<g mask="url(#mask0_5_47)">
<path d="M98.1162 45.5471L54.4538 1.88809C53.8557 1.28959 53.1455 0.81482 52.3639 0.490895C51.5822 0.16697 50.7444 0.000244141 49.8982 0.000244141C49.0521 0.000244141 48.2143 0.16697 47.4326 0.490895C46.6509 0.81482 45.9408 1.28959 45.3426 1.88809L36.2793 10.9557L47.7782 22.4547C49.1301 21.9955 50.5835 21.9239 51.9741 22.2477C53.3646 22.5716 54.6367 23.2781 55.6466 24.2873C56.6621 25.3039 57.371 26.5857 57.6922 27.9862C58.0134 29.3867 57.934 30.8494 57.463 32.2069L68.5494 43.29C69.9072 42.8184 71.3705 42.739 72.7714 43.0608C74.1723 43.3827 75.4541 44.0927 76.47 45.1097C77.1816 45.8211 77.7461 46.6658 78.1312 47.5954C78.5163 48.5251 78.7145 49.5215 78.7145 50.5277C78.7145 51.534 78.5163 52.5304 78.1312 53.46C77.7461 54.3897 77.1816 55.2343 76.47 55.9458C75.0314 57.3829 73.0811 58.1902 71.0476 58.1902C69.0141 58.1902 67.0638 57.3829 65.6252 55.9458C64.5565 54.8753 63.8283 53.5126 63.5324 52.0292C63.2365 50.5458 63.3861 49.008 63.9623 47.6095L53.6235 37.2739V64.478C54.7147 65.0171 55.6618 65.8083 56.3864 66.7863C57.1109 67.7643 57.5921 68.9008 57.7899 70.1018C57.9878 71.3027 57.8966 72.5335 57.5241 73.6922C57.1516 74.8509 56.5083 75.9042 55.6477 76.7648C54.9362 77.4764 54.0916 78.0409 53.1619 78.426C52.2323 78.8112 51.2359 79.0094 50.2296 79.0094C49.2234 79.0094 48.227 78.8112 47.2973 78.426C46.3677 78.0409 45.523 77.4764 44.8116 76.7648C44.0998 76.0534 43.5352 75.2086 43.15 74.2789C42.7647 73.3491 42.5665 72.3526 42.5665 71.3462C42.5665 70.3398 42.7647 69.3433 43.15 68.4136C43.5352 67.4838 44.0998 66.6391 44.8116 65.9276C45.5285 65.2092 46.3808 64.6399 47.319 64.2527V36.7984C46.3846 36.4135 45.5355 35.8478 44.8203 35.1338C44.1052 34.4197 43.5382 33.5715 43.1519 32.6377C42.7656 31.7039 42.5676 30.7029 42.5693 29.6924C42.571 28.6818 42.7723 27.6816 43.1617 26.7491L31.8239 15.409L1.88275 45.3425C0.676218 46.5514 -0.00140381 48.1896 -0.00140381 49.8976C-0.00140381 51.6056 0.676218 53.2438 1.88275 54.4526L45.5472 98.1172C46.7561 99.3233 48.3941 100.001 50.1018 100.001C51.8094 100.001 53.4474 99.3233 54.6563 98.1172L98.1162 54.6572C99.3227 53.4484 100 51.8102 100 50.1022C100 48.3942 99.3227 46.756 98.1162 45.5471Z" fill="#F03C2E"/>
</g>
</svg>
