<svg width="89" height="100" viewBox="0 0 89 100" fill="none" xmlns="http://www.w3.org/2000/svg">
<path d="M8.02525 90.0059L0 0H88.1778L80.1463 89.9934L44.0326 100L8.02525 90.0059Z" fill="#E44D26"/>
<path d="M73.2679 84.262L80.1338 7.35962H44.0889V92.3529L73.2679 84.262Z" fill="#F16529"/>
<path d="M44.0514 18.3973H16.4068L19.385 51.7796H44.0889V40.7418H29.4822L28.4728 29.4383H44.0889V18.3973H44.0514ZM44.0889 69.3739L44.042 69.3864L31.7479 66.0676L30.9666 57.2642H19.8787L21.4257 74.596L44.0389 80.8462L44.0889 80.8305V69.3739Z" fill="#EBEBEB"/>
<path d="M44.0514 51.7796H57.6455L56.3955 66.0926L44.0826 69.4146V80.8993L66.7146 74.6272L69.7459 40.7355H44.0889L44.0514 51.7796ZM71.4397 21.3599L71.7022 18.3973H44.0451V29.4352H70.7084L70.9272 26.9539L71.4397 21.3599Z" fill="white"/>
</svg>
