<svg width="88" height="100" viewBox="0 0 88 100" fill="none" xmlns="http://www.w3.org/2000/svg">
<path d="M8.16838 89.8799L0 0L87.9988 0.0343048L79.8991 89.8113L43.9308 99.9657L8.16838 89.8799ZM73.2751 84.9743L80.105 7.99314H44.068L44.3426 92.8988L73.2751 84.9743ZM40.7046 19.2796H31.9528L31.8498 65.3516L14.861 60.7204L14.8953 71.2521L40.7046 78.2161V19.2796Z" fill="#D4B830"/>
<path opacity="0.986" d="M14.8953 71.2521L14.861 60.7204C14.861 60.7204 25.7064 63.7735 31.8498 65.3516L31.9528 19.3138H40.7046V78.2161L14.8953 71.2521Z" fill="#EBEBEB" fill-opacity="0.9216"/>
<path d="M44.0681 7.95886H80.105L73.2752 84.94L44.0681 92.8645V7.95886ZM71.4218 72.0412L73.79 43.259L56.2863 45.2144V29.8457L74.9569 29.777L75.7119 19.2796L47.5345 19.4168L47.912 57.633L64.9352 54.717L64.6949 63.2247L47.5345 67.7873L47.7061 78.2162L71.4218 72.0412Z" fill="#FDD83C"/>
</svg>
