<svg width="103" height="100" viewBox="0 0 103 100" fill="none" xmlns="http://www.w3.org/2000/svg">
<path d="M18.1624 0H84.4017C94.4444 0 102.564 8.11966 102.564 18.1624V81.8376C102.564 91.8803 94.4444 100 84.4017 100H18.1624C8.11966 100 0 91.8803 0 81.8376V18.1624C0 8.11966 8.11966 0 18.1624 0Z" fill="#001E36"/>
<path d="M23.0769 70.1282V26.1539C23.0769 25.8547 23.2051 25.6838 23.5043 25.6838C24.2308 25.6838 24.9145 25.6838 25.8974 25.641C26.9231 25.5983 27.9914 25.5983 29.1453 25.5556C30.2991 25.5128 31.5384 25.5128 32.8632 25.4701C34.188 25.4274 35.4701 25.4274 36.7521 25.4274C40.2564 25.4274 43.1624 25.8547 45.5555 26.7522C47.6923 27.4786 49.6581 28.6752 51.282 30.2564C52.6496 31.624 53.7179 33.2906 54.4017 35.1282C55.0427 36.9231 55.3846 38.7607 55.3846 40.6838C55.3846 44.359 54.5299 47.3932 52.8205 49.7863C51.1111 52.1795 48.7179 53.9744 45.9402 55C43.0342 56.0684 39.829 56.453 36.3248 56.453C35.2991 56.453 34.6154 56.453 34.188 56.4103C33.7607 56.3675 33.1624 56.3675 32.3504 56.3675V70.0855C32.3931 70.3846 32.1795 70.641 31.8803 70.6838C31.8376 70.6838 31.7949 70.6838 31.7094 70.6838H23.5897C23.2478 70.6838 23.0769 70.5128 23.0769 70.1282ZM32.3931 33.9316V48.2906C32.9914 48.3334 33.547 48.3761 34.0598 48.3761H36.3248C37.9914 48.3761 39.6581 48.1197 41.2393 47.6069C42.6068 47.2222 43.8034 46.4103 44.7436 45.3419C45.641 44.2735 46.0684 42.8205 46.0684 40.9402C46.1111 39.6154 45.7692 38.2906 45.0854 37.1368C44.359 36.0257 43.3333 35.171 42.094 34.7009C40.5128 34.0598 38.8034 33.8034 37.0513 33.8462C35.9402 33.8462 34.9572 33.8462 34.1453 33.8889C33.2906 33.8462 32.6923 33.8889 32.3931 33.9316Z" fill="#31A8FF"/>
<path d="M82.0512 45.6838C80.7692 45 79.4017 44.5299 77.9487 44.2308C76.3675 43.8889 74.7863 43.6752 73.1624 43.6752C72.3077 43.6325 71.4102 43.7607 70.5983 43.9744C70.0427 44.1026 69.5726 44.4017 69.2735 44.8291C69.0598 45.1709 68.9316 45.5983 68.9316 45.9829C68.9316 46.3675 69.1025 46.7521 69.3589 47.094C69.7436 47.5641 70.2564 47.9487 70.8119 48.2479C71.7948 48.7607 72.8205 49.2308 73.8461 49.6581C76.1538 50.4273 78.376 51.4957 80.4273 52.7778C81.8376 53.6752 82.9914 54.8718 83.8034 56.3248C84.4871 57.6923 84.829 59.188 84.7863 60.7265C84.829 62.735 84.2307 64.7436 83.1196 66.4102C81.923 68.1196 80.2564 69.4444 78.3333 70.2137C76.2393 71.1111 73.6752 71.5812 70.5983 71.5812C68.6324 71.5812 66.7094 71.4102 64.7863 71.0256C63.2906 70.7692 61.7948 70.2991 60.4273 69.6581C60.1282 69.4872 59.9145 69.188 59.9572 68.8461V61.4102C59.9572 61.282 60 61.1111 60.1282 61.0256C60.2564 60.9402 60.3846 60.9829 60.5128 61.0684C62.1795 62.0513 63.9316 62.735 65.8119 63.1624C67.4359 63.5897 69.1453 63.8034 70.8547 63.8034C72.4786 63.8034 73.6324 63.5897 74.4017 63.2051C75.0854 62.906 75.5555 62.1795 75.5555 61.4102C75.5555 60.812 75.2136 60.2564 74.5299 59.7008C73.8461 59.1453 72.4359 58.5043 70.3418 57.6923C68.1624 56.9231 66.1538 55.8974 64.2735 54.6154C62.9487 53.6752 61.8376 52.4359 61.0256 50.9829C60.3418 49.6154 60 48.1197 60.0427 46.6239C60.0427 44.7863 60.5555 43.0342 61.4957 41.453C62.5641 39.7436 64.1453 38.3761 65.9829 37.5214C67.9914 36.4957 70.5128 36.0256 73.547 36.0256C75.2991 36.0256 77.094 36.1538 78.8461 36.4102C80.1282 36.5812 81.3675 36.9231 82.5213 37.3932C82.6923 37.4359 82.8632 37.6068 82.9487 37.7778C82.9914 37.9487 83.0342 38.1196 83.0342 38.2906V45.2564C83.0342 45.4273 82.9487 45.5983 82.8205 45.6838C82.4359 45.7692 82.2222 45.7692 82.0512 45.6838Z" fill="#31A8FF"/>
</svg>
