<svg width="100" height="100" viewBox="0 0 100 100" fill="none" xmlns="http://www.w3.org/2000/svg">
<path d="M25.8141 13.3808C25.8141 6.49614 27.663 2.75082 37.8715 0.967361C44.8022 -0.245535 53.6886 -0.397147 61.9777 0.967361C68.5247 2.04633 74.0352 6.9156 74.0352 13.3808V36.0949C74.0352 42.7567 68.6852 48.2137 61.9777 48.2137H37.8715C29.6901 48.2137 22.7949 55.1788 22.7949 63.053V73.9509H14.5062C7.49509 73.9509 3.41302 68.9032 1.6982 61.8401C-0.614895 52.3512 -0.516703 46.6976 1.6982 37.61C3.61852 29.6822 9.75455 25.4992 16.7662 25.4992H49.9289V22.467H25.8136V13.3803L25.8141 13.3808Z" fill="url(#paint0_linear_3_14)"/>
<path d="M74.0357 86.0701C74.0357 92.9548 68.0515 96.4419 61.9783 98.1809C52.8413 100.803 45.5083 100.401 37.872 98.1809C31.4946 96.3262 25.8146 92.5359 25.8146 86.0701V63.3561C25.8146 56.8191 31.2719 51.2373 37.872 51.2373H61.9783C70.0078 51.2373 77.0549 44.3086 77.0549 36.0948V25.5001H86.0936C93.1139 25.5001 96.419 30.708 98.1511 37.6109C100.562 47.1978 100.67 54.3676 98.1511 61.841C95.713 69.1002 93.1048 73.9518 86.0936 73.9518H49.9295V76.984H74.0357V86.0701Z" fill="url(#paint1_linear_3_14)"/>
<path d="M31.8428 11.8738C31.8428 9.35906 33.8613 7.32544 36.3627 7.32544C38.8545 7.32544 40.8826 9.35856 40.8826 11.8738C40.8826 14.3805 38.855 16.4131 36.3627 16.4131C33.8624 16.4131 31.8428 14.3799 31.8428 11.8738ZM58.9672 87.5777C58.9672 85.0711 60.9949 83.0384 63.4871 83.0384C65.9875 83.0384 68.007 85.0716 68.007 87.5777C68.007 90.0924 65.9885 92.1261 63.4871 92.1261C60.9954 92.1261 58.9672 90.0929 58.9672 87.5777Z" fill="white"/>
<defs>
<linearGradient id="paint0_linear_3_14" x1="74.0357" y1="28.7482" x2="0.000591026" y2="28.1587" gradientUnits="userSpaceOnUse">
<stop stop-color="#366A96"/>
<stop offset="1" stop-color="#3679B0"/>
</linearGradient>
<linearGradient id="paint1_linear_3_14" x1="99.9995" y1="62.7502" x2="-46.5543" y2="62.7502" gradientUnits="userSpaceOnUse">
<stop stop-color="#FFC836"/>
<stop offset="1" stop-color="#FFE873"/>
</linearGradient>
</defs>
</svg>
