<svg width="90" height="100" viewBox="0 0 90 100" fill="none" xmlns="http://www.w3.org/2000/svg">
<path d="M70.2579 4.41395H7.6152C3.41161 4.41395 0 7.85602 0 12.0292V81.1143C0 85.3179 3.44207 88.7295 7.6152 88.7295H48.8896C48.4327 68.1989 55.4387 28.3562 70.2731 4.35303L70.2579 4.41395Z" fill="#0F80CC"/>
<path d="M67.9733 6.65295H7.61523C4.63007 6.65295 2.20844 9.08982 2.20844 12.0597V76.1036C15.8853 70.8491 36.4007 66.3257 50.5954 66.5389C54.9715 46.1912 60.7685 26.1791 67.9733 6.65295Z" fill="url(#paint0_linear_5_56)"/>
<path d="M84.8791 2.15985C80.5841 -1.64775 75.3905 -0.124714 70.2579 4.41395L67.9733 6.63759C59.2006 15.9281 51.2199 33.169 48.5393 46.3433C49.4944 48.4298 50.2491 50.6022 50.7934 52.8314L51.1285 54.3545L51.4636 55.908C51.4636 55.908 51.3874 55.6034 51.0676 54.6895L50.8544 54.0803C50.8115 53.9675 50.7658 53.8557 50.7173 53.7452C50.1385 52.4202 48.585 49.6026 47.8692 48.3841C47.3151 50.0036 46.7921 51.6336 46.3005 53.2731C48.3109 56.9589 49.5293 63.2642 49.5293 63.2642C49.5293 63.2642 49.4227 62.853 48.9201 61.4366C48.4632 60.1725 46.2395 56.2583 45.7217 55.3444C44.8079 58.6951 44.4576 60.9492 44.7774 61.4975C45.3866 62.5637 45.9959 64.5436 46.5289 66.4322C47.3514 69.7813 48.0222 73.1659 48.5393 76.5756L48.6155 77.5199C48.4576 81.3286 48.5339 85.1434 48.8439 88.9427C49.2399 93.7098 49.9862 97.8068 50.9305 100L51.5702 99.6497C50.1994 95.3243 49.6207 89.6738 49.8644 83.1399C50.2451 73.164 52.5297 61.132 56.779 48.5974C63.983 29.5137 73.9132 14.3137 83.021 7.06404C74.7204 14.5574 63.4956 38.8042 60.1449 47.7749C56.383 57.827 53.7177 67.2699 52.1032 76.3015C54.8752 67.8334 63.8307 64.1781 63.8307 64.1781C63.8307 64.1781 68.2475 58.756 73.3649 51.0038L63.5413 53.6234L60.3734 55.0246C60.3734 55.0246 68.4455 50.1052 75.4058 47.8663C84.9552 32.8339 95.3576 11.4656 84.8791 2.14462" fill="#003B57"/>
<defs>
<linearGradient id="paint0_linear_5_56" x1="40.1474" y1="8.06938" x2="40.1474" y2="72.2503" gradientUnits="userSpaceOnUse">
<stop stop-color="#97D9F6"/>
<stop offset="0.92024" stop-color="#0F80CC"/>
<stop offset="1" stop-color="#0F80CC"/>
</linearGradient>
</defs>
</svg>
