<svg width="100" height="100" viewBox="0 0 100 100" fill="none" xmlns="http://www.w3.org/2000/svg">
<g clip-path="url(#clip0_1_107)">
<path d="M2.468 44.104L35.144 21.592L43.544 25.792V39.82L25.652 52.42L43.544 61.576V76.024L2.468 55.024V44.104ZM15.572 48.388L34.304 35.2V23.188L3.308 44.524V54.52L34.304 70.396V57.88L15.572 48.388ZM55.9465 74.596V60.148L73.8385 47.884L55.9465 38.392V24.448L97.0225 45.532V56.452L64.3465 78.796L55.9465 74.596ZM56.7865 25.876V37.888L75.5185 47.8L56.7865 60.568V73L87.7825 51.832V41.836L56.7865 25.876Z" fill="#202124"/>
</g>
<defs>
<clipPath id="clip0_1_107">
<rect width="100" height="100" fill="white"/>
</clipPath>
</defs>
</svg>
